<?xml version="1.0" standalone="no"?>
<!DOCTYPE svg PUBLIC "-//W3C//DTD SVG 20010904//EN"
 "http://www.w3.org/TR/2001/REC-SVG-20010904/DTD/svg10.dtd">
<svg version="1.0" xmlns="http://www.w3.org/2000/svg"
 width="473.000000pt" height="259.000000pt" viewBox="0 0 473.000000 259.000000"
 preserveAspectRatio="xMidYMid meet">

<g transform="translate(0.000000,259.000000) scale(0.100000,-0.100000)"
fill="#000000" stroke="none">
<path d="M130 2411 c0 -43 19 -56 125 -86 55 -15 109 -36 120 -47 20 -18 20
-34 23 -821 4 -776 -2 -1110 -18 -1137 -4 -6 -60 -27 -124 -45 -65 -18 -120
-35 -122 -38 -3 -3 -2 -21 1 -41 l7 -36 489 0 489 0 0 40 0 39 -102 31 c-57
18 -109 37 -116 44 -10 10 -14 117 -19 489 l-6 477 486 0 487 0 0 -474 c0
-506 1 -496 -48 -510 -184 -53 -194 -57 -188 -79 3 -12 6 -30 6 -39 0 -17 30
-18 490 -18 l490 0 0 40 0 39 -72 21 c-140 41 -168 52 -178 70 -7 12 -9 245
-8 654 l3 634 295 -735 295 -735 69 5 c38 4 73 10 77 14 4 4 172 413 374 908
202 495 371 909 376 920 4 11 7 -359 6 -822 -2 -755 -4 -844 -18 -858 -9 -9
-58 -29 -110 -44 l-94 -28 0 -39 0 -39 488 -3 487 -2 0 39 c0 44 17 35 -167
87 -103 29 -93 -84 -93 1009 0 767 3 965 13 979 7 10 60 31 127 50 120 35 128
41 116 90 l-6 23 -392 -1 -392 -1 -218 -535 c-120 -294 -263 -650 -320 -790
-56 -140 -104 -258 -108 -263 -3 -4 -34 64 -67 150 -34 87 -167 425 -296 751
l-235 593 24 9 c20 8 24 16 24 50 l0 40 -495 0 -495 0 1 -22 c1 -51 13 -60
115 -90 54 -16 105 -36 112 -45 9 -13 12 -114 12 -425 l0 -408 -487 0 -486 0
6 412 c5 328 9 414 20 425 7 7 58 26 113 42 l99 28 0 39 0 39 -492 1 -493 1 0
-26z"/>
</g>
</svg>
