<svg width="255" height="231" viewBox="0 0 255 231" fill="none" xmlns="http://www.w3.org/2000/svg">
<g clip-path="url(#clip0_162_1160)">
<path d="M255 115.5C255.026 131.59 251.665 147.506 245.135 162.218C244.924 162.694 244.711 163.166 244.494 163.636C244.387 163.872 244.277 164.105 244.168 164.341C244.058 164.575 243.948 164.811 243.836 165.044C243.691 165.346 243.547 165.646 243.4 165.946C243.218 166.323 243.033 166.697 242.842 167.072C242.819 167.124 242.793 167.175 242.764 167.227C242.605 167.544 242.447 167.861 242.282 168.178C242.247 168.247 242.213 168.316 242.175 168.382C241.987 168.751 241.794 169.12 241.598 169.485V169.488C241.39 169.877 241.181 170.265 240.971 170.652C240.451 171.608 239.917 172.556 239.368 173.495C239.204 173.774 239.042 174.054 238.874 174.33C238.721 174.589 238.568 174.846 238.412 175.102C238.306 175.281 238.199 175.456 238.089 175.632C237.916 175.917 237.74 176.202 237.56 176.487C237.558 176.49 237.558 176.49 237.558 176.493C237.162 177.127 236.758 177.758 236.35 178.383H236.348C236.16 178.674 235.969 178.962 235.779 179.25V179.253C235.204 180.117 234.618 180.972 234.02 181.819V181.822C234.018 181.822 234.016 181.823 234.014 181.825V181.828L234.008 181.833C233.535 182.51 233.052 183.181 232.559 183.847V183.849C232.244 184.276 231.926 184.702 231.606 185.123C231.343 185.468 231.077 185.813 230.809 186.157C230.754 186.231 230.696 186.304 230.636 186.378V186.381C230.563 186.476 230.491 186.568 230.413 186.664V186.666C229.272 188.121 228.097 189.547 226.887 190.944H226.884C226.821 191.021 226.754 191.096 226.688 191.171C226.624 191.246 226.555 191.321 226.489 191.399H226.486C226.385 191.517 226.281 191.635 226.177 191.753C226.076 191.871 225.969 191.989 225.862 192.107V192.11C219.555 199.208 212.397 205.505 204.55 210.861C203.505 211.578 202.446 212.276 201.374 212.955C201.108 213.125 200.842 213.292 200.574 213.459C200.493 213.514 200.412 213.563 200.331 213.612C200.19 213.701 200.045 213.79 199.901 213.879C199.759 213.966 199.615 214.055 199.47 214.142C198.896 214.493 198.315 214.839 197.735 215.179C197.591 215.265 197.443 215.348 197.296 215.435C197.152 215.518 197.004 215.602 196.857 215.685C196.855 215.688 196.853 215.691 196.85 215.693C196.847 215.695 196.843 215.696 196.84 215.697L196.834 215.7L196.828 215.706H196.825C196.098 216.123 195.367 216.535 194.628 216.933C193.305 217.653 191.969 218.347 190.619 219.015C190.284 219.182 189.947 219.346 189.609 219.51C189.329 219.646 189.046 219.781 188.765 219.914C188.687 219.951 188.612 219.989 188.534 220.023C188.3 220.133 188.067 220.242 187.833 220.349C187.579 220.47 187.322 220.585 187.067 220.7C186.781 220.83 186.498 220.956 186.213 221.083C185.138 221.561 184.053 222.022 182.964 222.466C179.075 224.054 175.1 225.425 171.057 226.573C170.87 226.628 170.679 226.682 170.489 226.734C168.759 227.218 167.016 227.661 165.262 228.062C162.198 228.765 159.106 229.342 155.986 229.793C155.98 229.793 155.972 229.796 155.966 229.796C155.593 229.851 155.218 229.903 154.845 229.954C154.814 229.96 154.779 229.966 154.744 229.969C154.741 229.972 154.739 229.972 154.733 229.969C154.733 229.969 154.733 229.972 154.73 229.969C154.317 230.024 153.904 230.078 153.488 230.13C153.459 230.136 153.43 230.139 153.401 230.142C153.015 230.188 152.625 230.234 152.235 230.277C151.816 230.323 151.397 230.366 150.976 230.41C150.655 230.441 150.335 230.473 150.014 230.502C149.986 230.507 149.957 230.51 149.927 230.51C149.636 230.536 149.344 230.562 149.052 230.585C149.041 230.585 149.026 230.588 149.015 230.588C148.761 230.611 148.507 230.628 148.253 230.649C145.264 230.885 142.246 231.002 139.199 231C135.893 231 132.62 230.863 129.381 230.588C129.369 230.588 129.358 230.585 129.346 230.585C128.656 230.528 127.967 230.464 127.279 230.395C127.097 230.378 126.918 230.358 126.736 230.34C126.701 230.338 126.666 230.335 126.632 230.329C126.577 230.323 126.522 230.317 126.464 230.312C126.435 230.309 126.403 230.306 126.375 230.3C126.135 230.274 125.895 230.248 125.653 230.219C125.384 230.188 125.113 230.156 124.844 230.122C124.576 230.09 124.304 230.055 124.036 230.018C123.978 230.012 123.917 230.006 123.859 229.995C123.663 229.972 123.467 229.946 123.273 229.917C123.178 229.905 123.085 229.891 122.993 229.877C122.805 229.851 122.62 229.825 122.433 229.796C122.427 229.796 122.418 229.793 122.413 229.793C116.516 228.944 110.694 227.635 105.002 225.879H104.999C104.69 225.784 104.381 225.686 104.072 225.588C103.98 225.562 103.887 225.533 103.795 225.501C102.992 225.245 102.194 224.98 101.401 224.707C100.306 224.332 99.2197 223.94 98.1407 223.531C97.8461 223.419 97.5544 223.307 97.2599 223.194C96.6737 222.964 96.0903 222.734 95.5099 222.497C94.5194 222.094 93.5356 221.678 92.5585 221.25H92.5557V221.247C91.6431 220.847 90.7373 220.434 89.8382 220.009C89.8117 220.001 89.7864 219.989 89.7632 219.974C89.7603 219.974 89.7603 219.971 89.7574 219.971C89.5581 219.879 89.3589 219.784 89.1596 219.689L89.1538 219.686C84.2005 217.318 79.4243 214.598 74.8621 211.546C73.398 210.57 71.959 209.561 70.5449 208.519C69.4042 207.681 68.2799 206.822 67.1719 205.941C61.653 201.566 56.5455 196.699 51.9128 191.399H51.91V191.396C51.5836 191.024 51.266 190.656 50.9425 190.281V190.278C50.8963 190.226 50.853 190.175 50.8097 190.123C50.6047 189.884 50.4054 189.648 50.2062 189.406V189.403C49.9347 189.083 49.669 188.762 49.4091 188.441C49.3514 188.372 49.2965 188.305 49.2416 188.236H49.2387V188.233C49.0251 187.974 48.8142 187.712 48.6063 187.45C48.4995 187.32 48.3955 187.188 48.2916 187.055H48.2887V187.052C47.6591 186.26 47.0421 185.461 46.4376 184.653V184.65C46.2701 184.428 46.1055 184.207 45.9438 183.982H45.9409C45.167 182.939 44.4133 181.884 43.6798 180.817V180.814C43.4025 180.413 43.1282 180.01 42.8567 179.604C42.5853 179.198 42.3167 178.791 42.051 178.383H42.0481C41.7738 177.962 41.5024 177.54 41.2338 177.115C41.2194 177.092 41.2049 177.072 41.1934 177.052C40.9277 176.634 40.6659 176.214 40.4079 175.79C40.2 175.453 39.9949 175.119 39.7957 174.782C39.6571 174.555 39.5213 174.33 39.3885 174.1C39.3394 174.022 39.2961 173.944 39.2528 173.869C38.9467 173.348 38.6463 172.827 38.346 172.302C37.9966 171.686 37.6501 171.064 37.3122 170.442C37.1736 170.185 37.035 169.926 36.8992 169.667C36.8501 169.583 36.8068 169.5 36.7635 169.413C36.6018 169.108 36.4401 168.803 36.2812 168.495C36.1224 168.189 35.9636 167.881 35.8076 167.573C35.6517 167.265 35.4958 166.957 35.3427 166.645C35.2272 166.412 35.1117 166.176 34.9991 165.943C34.9873 165.923 34.9767 165.903 34.9673 165.882C34.9153 165.773 34.8604 165.666 34.8113 165.557C34.7998 165.54 34.791 165.521 34.7854 165.502C34.667 165.26 34.5514 165.021 34.4388 164.779C34.2887 164.468 34.1443 164.154 33.9999 163.84C33.8959 163.621 33.7977 163.399 33.6967 163.178C33.5523 162.867 33.4108 162.553 33.2722 162.236C33.1249 161.91 32.9834 161.582 32.8419 161.254C32.8043 161.17 32.7697 161.089 32.735 161.006C32.6686 160.856 32.6051 160.706 32.5415 160.557C32.3711 160.159 32.2037 159.756 32.0391 159.355C31.8513 158.903 31.6684 158.45 31.4904 157.996C31.32 157.573 31.1544 157.148 30.9937 156.723L30.933 156.567V156.564C28.4238 149.987 26.5253 143.194 25.2614 136.27V136.267C24.5407 132.314 24.0279 128.326 23.7251 124.319C23.7078 124.101 23.6933 123.882 23.6789 123.663C23.4883 120.952 23.3949 118.231 23.3988 115.5C23.3988 114.287 23.418 113.081 23.4565 111.879C24.2053 86.7687 33.1799 62.5937 49.0077 43.0518C49.7037 42.1906 50.4122 41.34 51.1332 40.4999C72.37 15.712 103.945 0 139.199 0C180.417 0 216.607 21.4784 237.124 53.827C238.193 55.5034 239.215 57.2104 240.191 58.9482C249.931 76.2112 255.032 95.6916 255 115.5Z" fill="#F2F2F2"/>
<path d="M195.275 206.157C194.859 207.304 194.444 208.45 194.03 209.596C193.952 209.815 193.871 210.031 193.793 210.25C192.736 213.171 191.678 216.092 190.619 219.015C190.284 219.182 189.947 219.346 189.609 219.51C189.329 219.646 189.046 219.781 188.765 219.914C188.687 219.951 188.612 219.989 188.534 220.023C188.301 220.133 188.067 220.242 187.833 220.349C187.579 220.47 187.322 220.585 187.067 220.7C186.782 220.83 186.499 220.956 186.213 221.083C186.064 220.697 185.979 220.289 185.961 219.876C185.949 219.228 186.026 218.58 186.19 217.952C186.441 216.915 186.839 215.899 187.102 214.859C187.117 214.81 187.128 214.758 187.14 214.709C187.725 212.227 187.455 209.62 186.371 207.309C185.719 205.933 184.783 204.68 184.376 203.211C184.022 201.831 184.179 200.371 184.818 199.098C185.055 198.604 185.353 198.141 185.704 197.721C185.788 197.614 185.878 197.514 185.97 197.413C186.819 196.482 187.948 195.851 189.187 195.613C191.558 195.192 194.036 196.451 195.361 198.427C195.904 199.22 196.235 200.14 196.323 201.097C196.467 202.828 195.867 204.524 195.275 206.157Z" fill="#E4E4E4"/>
<path d="M188.728 217.857C188.185 216.858 187.275 215.982 187.102 214.859C186.539 211.253 185.182 208.666 182.932 207.2C182.279 206.777 182.175 205.841 181.774 205.167C181.595 204.864 181.413 204.562 181.225 204.265C180.922 203.773 180.606 203.29 180.278 202.816C179.656 201.901 178.97 201.031 178.225 200.212C177.916 199.87 177.59 199.538 177.252 199.225L177.249 199.222C177.038 199.02 176.824 198.827 176.602 198.64C176.515 198.565 176.426 198.49 176.333 198.415L176.328 198.409C175.938 198.072 175.529 197.757 175.103 197.465C174.124 196.805 173.018 196.347 171.883 196.713C171.437 196.865 171.008 197.062 170.601 197.3C170.393 197.419 170.188 197.542 169.983 197.666C169.845 197.75 169.706 197.833 169.567 197.92C169.455 197.986 169.342 198.052 169.229 198.116C168.357 198.617 167.481 199.108 166.602 199.59C166.475 199.662 166.347 199.731 166.218 199.801H166.215C166.125 199.852 166.033 199.901 165.94 199.95C165.764 200.048 165.585 200.146 165.409 200.241C164.88 200.526 164.351 200.809 163.821 201.088C163.549 201.232 163.275 201.37 163.001 201.509C162.873 201.572 162.746 201.635 162.622 201.702H162.619C162.573 201.725 162.53 201.748 162.484 201.771C162.108 201.964 161.739 202.162 161.38 202.378C160.342 203.002 159.439 203.828 158.727 204.807C158.588 204.997 158.455 205.193 158.334 205.394C158.175 205.655 158.03 205.924 157.901 206.201C157.811 206.388 157.727 206.575 157.652 206.765V206.768C156.942 208.589 156.843 210.59 157.369 212.471V212.474C157.404 212.604 157.442 212.73 157.485 212.857C157.554 213.07 157.632 213.283 157.719 213.491C157.814 213.722 157.922 213.948 158.042 214.168V214.17C158.685 215.264 159.487 216.256 160.422 217.114L160.451 217.143C160.566 217.255 160.684 217.37 160.8 217.483C160.864 217.543 160.93 217.604 160.999 217.661C161.998 218.517 163.613 219.165 164.525 220.043C165.013 220.513 165.299 221.046 165.187 221.711C164.886 223.477 164.953 224.62 165.259 225.355C166.09 227.359 168.701 226.34 170.489 226.734C170.679 226.682 170.87 226.628 171.057 226.573C175.1 225.425 179.075 224.054 182.964 222.466C184.053 222.022 185.138 221.561 186.213 221.083C186.498 220.956 186.781 220.83 187.067 220.7C187.322 220.585 187.579 220.47 187.833 220.349C188.067 220.242 188.3 220.133 188.534 220.023C188.612 219.989 188.687 219.951 188.765 219.914C189.046 219.781 189.329 219.646 189.609 219.51C189.323 218.955 189.025 218.404 188.728 217.857Z" fill="#E4E4E4"/>
<path d="M167.6 189.894C168.206 188.065 167.372 186.859 165.224 186.219C165.151 186.152 165.062 186.105 164.965 186.082C164.869 186.059 164.769 186.06 164.673 186.086C164.577 186.112 164.49 186.161 164.418 186.229C164.346 186.297 164.293 186.382 164.263 186.476L162.387 192.018C160.426 191.517 158.987 191.86 158.675 193.795C159.449 191.824 158.721 190.588 156.543 190.061C156.472 189.99 156.385 189.939 156.289 189.911C156.193 189.884 156.091 189.881 155.994 189.903C155.896 189.925 155.806 189.971 155.731 190.037C155.657 190.103 155.6 190.187 155.567 190.281L154.333 195.273C152.832 197.529 152.094 200.206 152.229 202.912C152.364 205.617 153.364 208.208 155.083 210.304C156.802 212.401 159.149 213.893 161.781 214.562C164.412 215.232 167.189 215.042 169.705 214.022C172.221 213.002 174.342 211.205 175.759 208.894C177.176 206.584 177.814 203.881 177.578 201.183C177.343 198.485 176.247 195.933 174.451 193.901C172.655 191.869 170.254 190.465 167.599 189.894H167.6Z" fill="#E4E4E4"/>
<path d="M166.406 205.688C166.152 205.823 165.855 205.853 165.58 205.77C165.305 205.687 165.074 205.499 164.937 205.246C164.918 205.21 164.914 205.168 164.926 205.129C164.938 205.09 164.965 205.057 165.001 205.038C165.037 205.018 165.079 205.014 165.119 205.026C165.158 205.038 165.191 205.064 165.21 205.1C165.308 205.281 165.473 205.415 165.669 205.474C165.866 205.533 166.078 205.511 166.259 205.415C166.439 205.318 166.574 205.154 166.634 204.958C166.693 204.762 166.672 204.55 166.575 204.37C166.556 204.334 166.552 204.291 166.564 204.252C166.576 204.213 166.603 204.18 166.639 204.161C166.675 204.142 166.717 204.137 166.757 204.149C166.796 204.161 166.829 204.188 166.848 204.224C166.984 204.476 167.014 204.773 166.931 205.047C166.848 205.322 166.659 205.552 166.406 205.688Z" fill="white"/>
<path d="M165.271 203.416C165.874 203.093 166.262 202.644 166.138 202.412C166.013 202.181 165.423 202.255 164.82 202.578C164.217 202.901 163.829 203.35 163.954 203.581C164.078 203.813 164.668 203.738 165.271 203.416Z" fill="white"/>
<path d="M158.861 203.808C158.943 203.413 159.11 203.041 159.351 202.718C159.593 202.396 159.902 202.13 160.258 201.939C160.614 201.749 161.007 201.639 161.41 201.616C161.814 201.594 162.217 201.661 162.591 201.811C162.78 201.236 162.793 200.619 162.63 200.036C162.466 199.454 162.133 198.933 161.673 198.539C161.213 198.146 160.646 197.897 160.044 197.825C159.442 197.753 158.832 197.86 158.291 198.134C157.751 198.407 157.303 198.834 157.006 199.361C156.709 199.888 156.575 200.492 156.621 201.094C156.668 201.697 156.892 202.273 157.267 202.749C157.641 203.224 158.149 203.579 158.725 203.767C158.77 203.781 158.815 203.795 158.861 203.808Z" fill="white"/>
<path d="M159.777 202.698C160.359 202.698 160.831 202.227 160.831 201.646C160.831 201.065 160.359 200.594 159.777 200.594C159.195 200.594 158.722 201.065 158.722 201.646C158.722 202.227 159.195 202.698 159.777 202.698Z" fill="#3F3D56"/>
<path d="M166.16 200.023C166.242 199.628 166.409 199.256 166.651 198.934C166.892 198.611 167.202 198.345 167.557 198.154C167.913 197.964 168.307 197.854 168.71 197.832C169.113 197.809 169.516 197.876 169.891 198.026C170.079 197.451 170.092 196.834 169.929 196.251C169.766 195.669 169.433 195.148 168.972 194.754C168.512 194.361 167.945 194.112 167.343 194.04C166.741 193.968 166.131 194.075 165.591 194.349C165.05 194.622 164.603 195.049 164.305 195.576C164.008 196.104 163.874 196.707 163.921 197.31C163.967 197.913 164.192 198.488 164.566 198.964C164.94 199.439 165.448 199.794 166.024 199.982C166.069 199.996 166.115 200.01 166.16 200.023Z" fill="white"/>
<path d="M167.463 198.854C168.046 198.854 168.518 198.383 168.518 197.802C168.518 197.221 168.046 196.75 167.463 196.75C166.881 196.75 166.409 197.221 166.409 197.802C166.409 198.383 166.881 198.854 167.463 198.854Z" fill="#3F3D56"/>
<path d="M172.755 197.729L169.155 201.389L169.518 201.744L173.118 198.085L172.755 197.729Z" fill="white"/>
<path d="M173.899 199.5L169.549 202.232L169.82 202.661L174.17 199.93L173.899 199.5Z" fill="white"/>
<path d="M161.431 205.523L156.383 206.492L156.479 206.991L161.527 206.021L161.431 205.523Z" fill="white"/>
<path d="M161.917 206.317L157.23 208.422L157.439 208.885L162.126 206.78L161.917 206.317Z" fill="white"/>
<path d="M13.2703 128.199C3.39677 119.336 -2.58171 105.242 1.09237 92.5098C9.38381 104.308 21.592 112.8 35.5569 116.485C40.9478 117.886 47.09 118.885 50.3697 123.377C52.4105 126.172 52.8844 129.865 52.4014 133.288C51.9182 136.712 50.568 139.945 49.23 143.135L49.3008 143.995C36.262 141.464 23.1438 137.062 13.2703 128.199Z" fill="#E6E6E6"/>
<path d="M1.36816 92.5499C3.87759 103.108 9.78513 112.935 18.0744 119.988C19.8665 121.513 21.8175 122.904 24.006 123.803C26.146 124.663 28.4779 124.937 30.7595 124.594C32.8933 124.317 35.0437 123.788 37.2078 124.033C39.4888 124.292 41.3945 125.567 42.7258 127.402C44.3547 129.648 45.0773 132.344 45.6921 135.005C46.3748 137.959 47.0369 141.038 48.9924 143.453C49.2293 143.745 48.7604 144.095 48.5238 143.803C45.1215 139.602 45.5869 133.787 43.1229 129.145C41.9731 126.979 40.1619 125.146 37.6673 124.691C35.4859 124.293 33.2679 124.837 31.1098 125.136C28.8438 125.45 26.6514 125.374 24.4775 124.608C22.2537 123.825 20.244 122.507 18.4207 121.034C14.311 117.665 10.758 113.672 7.89193 109.202C4.59253 104.118 2.18936 98.5083 0.786405 92.6162C0.699719 92.2515 1.28204 92.1875 1.36816 92.5499L1.36816 92.5499Z" fill="white"/>
<path d="M15.2588 117.837C13.8635 119.067 12.0756 119.761 10.2144 119.797C8.3531 119.833 6.53966 119.208 5.0979 118.033C4.807 117.794 5.16519 117.332 5.45648 117.571C6.79702 118.667 8.4863 119.25 10.2194 119.213C11.9526 119.176 13.6154 118.522 14.9078 117.37C15.189 117.12 15.5383 117.589 15.2588 117.837V117.837Z" fill="white"/>
<path d="M29.6961 124.877C29.9654 121.09 28.7939 117.342 26.4155 114.379C26.1796 114.086 26.6485 113.736 26.8841 114.029C29.3534 117.117 30.5645 121.02 30.2756 124.959C30.2478 125.335 29.6685 125.25 29.6961 124.877Z" fill="white"/>
<path d="M5.35814 103.99C5.99735 103.626 6.53606 103.11 6.92587 102.488C7.31568 101.866 7.5444 101.156 7.59149 100.424C7.61449 100.048 8.19385 100.134 8.17099 100.507C8.1152 101.316 7.86164 102.099 7.43249 102.787C7.00333 103.476 6.41163 104.049 5.70908 104.457C5.64609 104.501 5.56867 104.52 5.49256 104.509C5.41644 104.498 5.34735 104.459 5.29931 104.399C5.25315 104.336 5.23344 104.259 5.24446 104.182C5.25547 104.106 5.29633 104.037 5.35814 103.99Z" fill="white"/>
<path d="M42.3262 74.5978C42.3185 74.8327 42.3108 75.0677 42.3071 75.3057C42.2203 78.4649 42.3909 81.626 42.8174 84.7578C42.8465 85.0004 42.8796 85.2459 42.9157 85.4872C44.0237 93.0213 46.5245 100.285 50.291 106.908C51.7922 109.543 53.4921 112.059 55.3761 114.436C57.9782 117.719 61.0613 121.072 62.3852 124.907C62.5278 125.306 62.6456 125.713 62.7377 126.126L50.3475 143.842C50.2991 143.868 50.2546 143.897 50.206 143.924L49.7437 144.654C49.638 144.538 49.5308 144.415 49.4251 144.3C49.3634 144.233 49.3046 144.162 49.2429 144.095C49.2027 144.049 49.1626 144.003 49.1237 143.964C49.1103 143.948 49.097 143.933 49.0876 143.921C49.0487 143.882 49.0167 143.841 48.9818 143.805C48.3808 143.122 47.7835 142.434 47.19 141.741C47.186 141.738 47.186 141.738 47.1847 141.732C42.676 136.437 38.5709 130.721 35.4662 124.565C35.3728 124.38 35.2753 124.192 35.1876 123.999C33.8036 121.216 32.6499 118.325 31.738 115.355C31.2439 113.728 30.8328 112.076 30.5062 110.406C29.6706 106.091 29.5207 101.672 30.062 97.3107C31.1423 88.6164 34.9985 80.3635 41.8023 75.0023C41.9765 74.8653 42.148 74.732 42.3262 74.5978Z" fill="#E6E6E6"/>
<path d="M42.5238 74.7945C38.154 84.7317 36.9389 96.1256 39.3003 106.734C39.8108 109.028 40.5288 111.31 41.7333 113.343C42.9226 115.315 44.6196 116.933 46.6481 118.03C48.5189 119.09 50.5556 119.959 52.1353 121.454C53.8005 123.03 54.5525 125.193 54.5074 127.458C54.4522 130.229 53.4019 132.816 52.2867 135.309C51.0485 138.078 49.7183 140.934 49.8223 144.036C49.8349 144.412 49.2494 144.41 49.2368 144.034C49.056 138.637 52.9376 134.274 53.7722 129.088C54.1616 126.668 53.8223 124.116 52.1051 122.255C50.6036 120.628 48.5041 119.73 46.6006 118.673C44.6019 117.563 42.8972 116.186 41.6237 114.269C40.321 112.308 39.512 110.048 38.945 107.778C37.6976 102.62 37.2711 97.2979 37.6811 92.0075C38.1155 85.967 39.5827 80.0451 42.0192 74.4981C42.1702 74.1549 42.6737 74.4535 42.5238 74.7945L42.5238 74.7945Z" fill="white"/>
<path d="M38.3503 103.326C36.4943 103.47 34.6475 102.951 33.1397 101.862C31.6319 100.773 30.5614 99.1847 30.1193 97.381C30.0311 97.0158 30.596 96.8619 30.6844 97.2276C31.0929 98.908 32.0903 100.387 33.4964 101.399C34.9025 102.41 36.6247 102.887 38.3522 102.743C38.7277 102.712 38.7236 103.296 38.3503 103.326Z" fill="white"/>
<path d="M45.6285 117.617C48.129 114.755 49.4562 111.059 49.3457 107.265C49.3344 106.889 49.9199 106.892 49.9312 107.267C50.0388 111.215 48.6497 115.059 46.0412 118.031C45.7923 118.314 45.3811 117.898 45.6286 117.617L45.6285 117.617Z" fill="white"/>
<path d="M38.804 86.3246C39.5338 86.4183 40.2754 86.3297 40.9624 86.0669C41.6493 85.804 42.26 85.3751 42.7397 84.8186C42.9848 84.5325 43.3958 84.9486 43.1523 85.2329C42.6195 85.8452 41.9444 86.3181 41.1861 86.6102C40.4278 86.9023 39.6093 87.0048 38.8021 86.9086C38.7252 86.9059 38.6523 86.8741 38.5981 86.8197C38.5439 86.7653 38.5125 86.6923 38.5103 86.6157C38.511 86.5383 38.5422 86.4644 38.5972 86.4099C38.6522 86.3554 38.7265 86.3248 38.804 86.3247V86.3246Z" fill="white"/>
<path d="M155.514 75.7793C157.235 66.2844 154.374 55.5104 146.566 49.8147C147.068 60.2956 143.837 70.6157 137.444 78.9493C134.967 82.1543 131.878 85.4618 131.998 89.5067C132.073 92.0235 133.452 94.3606 135.261 96.1168C137.07 97.873 139.293 99.1338 141.489 100.375L141.833 100.902C148.208 93.6444 153.792 85.2742 155.514 75.7793Z" fill="#E6E6E6"/>
<path d="M146.425 49.9605C149.734 57.2331 150.662 65.3608 149.076 73.1891C148.765 74.8804 148.188 76.5122 147.367 78.0244C146.52 79.4717 145.299 80.6662 143.833 81.484C142.48 82.2738 141.006 82.9256 139.869 84.0296C139.296 84.6033 138.851 85.2914 138.563 86.0487C138.275 86.806 138.151 87.6154 138.199 88.424C138.266 90.4416 139.055 92.3151 139.891 94.1205C140.819 96.125 141.815 98.1924 141.768 100.452C141.763 100.726 142.189 100.719 142.195 100.445C142.275 96.5134 139.407 93.3727 138.75 89.6041C138.443 87.8456 138.666 85.9843 139.899 84.6127C140.977 83.4132 142.497 82.7399 143.873 81.9519C145.316 81.1751 146.546 80.0578 147.456 78.6976C148.351 77.232 148.99 75.6251 149.345 73.9457C150.204 70.1776 150.464 66.2981 150.115 62.4495C149.741 58.0548 148.617 53.7563 146.79 49.7399C146.676 49.4914 146.313 49.7136 146.425 49.9605L146.425 49.9605Z" fill="white"/>
<path d="M149.735 70.6985C151.088 70.7855 152.428 70.3901 153.516 69.5827C154.604 68.7754 155.368 67.6087 155.673 66.2911C155.734 66.0243 155.321 65.9176 155.26 66.1848C154.978 67.4122 154.266 68.4989 153.252 69.2487C152.237 69.9984 150.988 70.3618 149.729 70.2733C149.455 70.2543 149.463 70.6797 149.735 70.6985Z" fill="white"/>
<path d="M144.571 81.1736C142.723 79.1136 141.721 76.4345 141.766 73.6706C141.771 73.3967 141.344 73.404 141.34 73.6775C141.299 76.5538 142.347 79.3397 144.275 81.4791C144.459 81.6829 144.754 81.3763 144.571 81.1736Z" fill="white"/>
<path d="M149.243 58.3219C148.713 58.397 148.172 58.3395 147.669 58.1545C147.167 57.9696 146.718 57.663 146.363 57.2623C146.182 57.0563 145.887 57.3632 146.067 57.5679C146.46 58.0088 146.957 58.3468 147.512 58.5523C148.067 58.7579 148.664 58.8247 149.25 58.747C149.306 58.7444 149.359 58.7205 149.398 58.6804C149.437 58.6402 149.459 58.5868 149.46 58.531C149.459 58.4747 149.436 58.4211 149.395 58.382C149.354 58.3428 149.3 58.3212 149.244 58.3218L149.243 58.3219Z" fill="white"/>
<path d="M114.817 57.8451C114.926 57.977 115.036 58.1088 115.144 58.2442C116.607 60.0244 117.922 61.9203 119.077 63.913C119.169 64.0657 119.26 64.2218 119.347 64.3767C122.078 69.2072 123.886 74.5015 124.679 79.9904C124.993 82.1748 125.14 84.3799 125.118 86.5865C125.088 89.634 124.812 92.9358 125.765 95.7329C125.861 96.0258 125.975 96.3125 126.107 96.5914L141.162 101.279C141.202 101.273 141.241 101.27 141.28 101.263L141.873 101.478C141.882 101.364 141.889 101.246 141.898 101.132C141.904 101.066 141.906 100.999 141.911 100.933C141.914 100.889 141.916 100.845 141.921 100.805C141.922 100.79 141.923 100.775 141.923 100.764C141.928 100.724 141.928 100.687 141.932 100.65C141.973 99.9901 142.009 99.3283 142.041 98.6652C142.042 98.6617 142.042 98.6617 142.039 98.6572C142.268 93.6035 142.075 88.4864 141.11 83.5611C141.081 83.413 141.053 83.2614 141.017 83.1111C140.57 80.8934 139.941 78.7159 139.138 76.6003C138.695 75.4433 138.193 74.3094 137.634 73.2031C136.186 70.3471 134.296 67.7361 132.034 65.4659C127.524 60.9409 121.614 57.9048 115.299 57.8449C115.138 57.8435 114.979 57.8431 114.817 57.8451Z" fill="#E6E6E6"/>
<path d="M114.791 58.0462C121.823 61.8658 127.47 67.7982 130.929 75.001C131.702 76.5384 132.226 78.1876 132.484 79.8879C132.681 81.5523 132.427 83.239 131.75 84.7727C131.147 86.2154 130.363 87.6215 130.122 89.1852C130.011 89.9875 130.07 90.8041 130.298 91.5817C130.525 92.3592 130.915 93.08 131.441 93.6969C132.712 95.2679 134.473 96.2898 136.23 97.2293C138.181 98.2725 140.224 99.3252 141.552 101.157C141.712 101.379 142.048 101.118 141.888 100.896C139.578 97.7082 135.393 96.9228 132.593 94.3084C131.287 93.0885 130.341 91.4685 130.498 89.633C130.634 88.028 131.442 86.5773 132.065 85.1218C132.748 83.6353 133.055 82.0046 132.961 80.3722C132.791 78.6643 132.331 76.9977 131.6 75.4438C130.012 71.9191 127.878 68.6654 125.276 65.802C122.325 62.5176 118.832 59.7609 114.949 57.6511C114.708 57.5207 114.552 57.9166 114.791 58.0462L114.791 58.0462Z" fill="white"/>
<path d="M129.952 72.6163C131.085 71.8733 131.916 70.7529 132.297 69.4552C132.678 68.1575 132.584 66.7669 132.032 65.5318C131.92 65.2823 131.526 65.445 131.639 65.6948C132.155 66.844 132.242 68.1394 131.885 69.3471C131.527 70.5548 130.749 71.5954 129.69 72.281C129.46 72.4302 129.724 72.7647 129.952 72.6163Z" fill="white"/>
<path d="M132.152 84.0813C129.433 83.5462 127.016 82.0087 125.383 79.7751C125.221 79.5537 124.885 79.8155 125.047 80.0367C126.75 82.3578 129.269 83.9527 132.1 84.5033C132.37 84.5556 132.42 84.1333 132.152 84.0813Z" fill="white"/>
<path d="M122.088 63.0297C121.71 63.4083 121.244 63.6872 120.731 63.8415C120.218 63.9957 119.674 64.0205 119.149 63.9135C118.88 63.8578 118.829 64.2802 119.097 64.3355C119.677 64.451 120.277 64.423 120.845 64.2538C121.412 64.0847 121.929 63.7795 122.351 63.3651C122.394 63.3293 122.421 63.2786 122.428 63.2232C122.435 63.1677 122.421 63.1118 122.388 63.0666C122.353 63.0224 122.302 62.9938 122.246 62.9868C122.19 62.9799 122.133 62.9954 122.088 63.0298L122.088 63.0297Z" fill="white"/>
<path d="M37.9094 108.88C39.9937 108.88 41.9927 109.706 43.4666 111.176C44.9404 112.646 45.7684 114.64 45.7685 116.719V116.719C45.7682 118.537 45.1342 120.299 43.975 121.703C42.8159 123.106 41.2036 124.064 39.4143 124.412V137.233H34.3979V108.88H37.9094Z" fill="#3F3D56"/>
<path d="M230.414 183.981V186.665C229.273 188.12 228.098 189.546 226.888 190.943C226.758 191.095 226.625 191.245 226.489 191.398C226.284 191.637 226.074 191.873 225.863 192.109V183.981H230.414Z" fill="#CACACA"/>
<path d="M217.061 178.382C216.055 178.383 215.09 178.782 214.379 179.491C213.668 180.201 213.267 181.163 213.266 182.166V187.613C213.267 188.616 213.668 189.578 214.379 190.288C215.09 190.997 216.055 191.396 217.061 191.398H226.489C226.625 191.245 226.758 191.095 226.888 190.943C228.098 189.546 229.273 188.12 230.414 186.665C230.489 186.57 230.564 186.475 230.636 186.38C231.289 185.548 231.93 184.701 232.56 183.848C233.05 183.18 233.539 182.506 234.015 181.826C234.018 181.824 234.021 181.824 234.021 181.821C234.818 180.692 235.595 179.545 236.351 178.382H217.061Z" fill="#3F3D56"/>
<path d="M241.338 131.761C240.759 131.562 240.15 131.46 239.536 131.462H237.986C237.421 131.462 236.859 131.546 236.319 131.712C235.181 132.069 234.186 132.779 233.479 133.738C232.772 134.697 232.391 135.856 232.389 137.046V182.483C232.389 182.653 232.398 182.82 232.412 182.984C232.437 183.276 232.487 183.565 232.56 183.848C233.05 183.18 233.539 182.506 234.015 181.826C234.018 181.824 234.021 181.824 234.021 181.821C234.818 180.692 235.595 179.545 236.351 178.382C236.758 177.757 237.163 177.126 237.558 176.492C240.417 171.917 242.949 167.147 245.136 162.217V137.046C245.135 135.88 244.768 134.744 244.087 133.796C243.406 132.849 242.445 132.137 241.338 131.761Z" fill="#3F3D56"/>
<path d="M50.2069 183.981V189.405C48.9074 187.855 47.6512 186.271 46.4383 184.652C46.2708 184.43 46.1062 184.206 45.9416 183.981H50.2069Z" fill="#CACACA"/>
<path d="M59.0089 178.382H42.0489C42.5831 179.202 43.127 180.014 43.6805 180.815C44.414 181.884 45.1677 182.939 45.9416 183.981C46.1062 184.206 46.2708 184.43 46.4383 184.652C47.6541 186.271 48.9103 187.855 50.2069 189.405C50.4495 189.698 50.6949 189.989 50.9433 190.28C51.2609 190.655 51.5834 191.027 51.9107 191.398H59.0089C60.0146 191.396 60.9787 190.997 61.6896 190.288C62.4005 189.578 62.8 188.616 62.8006 187.613V182.166C62.8 181.163 62.4005 180.201 61.6896 179.492C60.9787 178.782 60.0146 178.383 59.0089 178.382Z" fill="#3F3D56"/>
<path d="M40.6685 132.092C39.869 131.679 38.9817 131.463 38.081 131.462H36.5332C35.8008 131.461 35.0754 131.604 34.3991 131.885C33.3745 132.307 32.4984 133.023 31.8816 133.942C31.2648 134.86 30.9349 135.941 30.9338 137.046V156.566C33.8496 164.212 37.5757 171.525 42.0489 178.382C42.5831 179.203 43.127 180.014 43.6805 180.815V137.046C43.6797 136.025 43.3986 135.023 42.8677 134.15C42.3367 133.277 41.5762 132.565 40.6685 132.092Z" fill="#3F3D56"/>
<path d="M103.756 216.451L108.844 215.287L106.763 195.162L99.2544 196.88L103.756 216.451Z" fill="#9E616A"/>
<path d="M108.384 198.99C108.28 198.636 108.21 198.272 108.174 197.904C108.131 197.47 108.046 197.04 107.919 196.623C107.775 196.242 107.596 195.876 107.385 195.528C107.284 195.344 107.177 195.159 107.082 194.972C106.986 194.785 106.903 194.592 106.834 194.393C103.856 185.623 99.7008 173.704 96.8188 166.728C95.1236 162.624 84.6987 161.258 74.8629 160.91C73.6644 160.867 72.4747 160.838 71.3109 160.823C70.9095 160.818 70.511 160.812 70.1153 160.809C69.1046 160.803 68.1199 160.803 67.1727 160.815C67.0485 160.815 66.9243 160.815 66.8001 160.818C66.11 160.823 65.441 160.833 64.7931 160.846C60.3402 160.933 57.0683 161.134 56.4849 161.172L51.2898 157.914L50.2762 157.278L50.1693 157.914L49.3521 162.77L47.9573 171.057L51.4544 172.036L53.7242 172.67L67.1727 176.432L70.0316 177.232L70.0489 177.238L74.8629 177.23L88.0254 177.207L88.6608 178.886C88.4326 179.239 88.2825 179.637 88.2205 180.053C88.1584 180.468 88.1858 180.892 88.3008 181.297C88.4158 181.701 88.6158 182.076 88.8875 182.398C89.1592 182.719 89.4963 182.979 89.8765 183.16L90.3703 183.393L96.3856 199.27C96.404 200.706 96.8537 202.103 97.6764 203.282C97.7775 203.429 97.8873 203.573 98.0028 203.714L98.1356 203.872L100.449 208.386L101.826 208.069L107.688 206.73L107.717 206.672C107.72 206.663 107.795 206.505 107.905 206.228V206.22C108.364 205.076 109.381 201.951 108.384 198.99Z" fill="#2F2E41"/>
<path d="M122.676 217.79C122.457 216.822 122.048 215.908 121.473 215.098C120.899 214.289 120.169 213.601 119.326 213.074C118.484 212.547 117.545 212.192 116.564 212.029C115.583 211.865 114.58 211.897 113.611 212.121L109.548 210.292L108.41 211.09L103.692 214.391L103.302 214.48L102.037 214.768L103.784 222.364L122.734 218.029L122.676 217.79Z" fill="#2F2E41"/>
<path d="M97.5407 206.079L95.8225 219.973L95.7647 220.428L95.5106 222.499C94.5201 222.096 93.5325 221.678 92.5564 221.249C91.6439 220.849 90.7381 220.436 89.839 220.011V206.081L97.5407 206.079Z" fill="#9E616A"/>
<path d="M60.2552 110.558C66.0084 110.558 70.6723 105.907 70.6723 100.168C70.6723 94.43 66.0084 89.7782 60.2552 89.7782C54.5019 89.7782 49.838 94.43 49.838 100.168C49.838 105.907 54.5019 110.558 60.2552 110.558Z" fill="#9E616A"/>
<path d="M98.6468 211.381C98.358 210.987 98.0577 210.575 98.0403 210.18C97.9739 208.789 97.9046 207.412 97.8324 206.064C97.7804 205.122 97.7284 204.192 97.6765 203.282C97.6707 203.167 97.662 203.051 97.6562 202.939C97.5667 201.433 98.0143 199.843 98.4446 198.302C98.5861 197.798 98.7276 197.288 98.8547 196.778C99.1723 195.642 99.3059 194.462 99.2503 193.284C98.511 183.955 95.2074 175.182 93.726 173.704C91.4735 171.457 81.2882 166.267 74.8629 163.11C73.7222 162.549 72.6999 162.053 71.8625 161.65C71.1203 161.29 70.5225 161.005 70.1154 160.809C69.8035 160.662 69.6013 160.567 69.532 160.532L69.4974 160.515L67.1727 160.774L66.8002 160.818L64.7498 161.048L51.4111 162.54L49.3521 162.77L46.4383 163.099L43.8075 163.393L43.7094 163.401L43.692 163.499C43.692 163.502 43.6863 163.522 43.6805 163.56C43.2281 166.407 43.2281 169.307 43.6805 172.154C44.0212 174.087 44.6652 176.051 45.8088 177.705C45.9647 177.929 46.1264 178.145 46.2997 178.353C46.3056 178.364 46.3134 178.374 46.3228 178.382C46.3604 178.428 46.3979 178.474 46.4383 178.52V178.523C47.7464 180.04 49.5022 181.106 51.4544 181.567C51.7432 181.645 52.0378 181.708 52.341 181.76C55.5724 182.331 59.2226 182.855 62.8006 183.316C64.282 183.506 65.7519 183.684 67.1727 183.851C70.0172 184.185 72.6739 184.468 74.8629 184.692C77.9297 185.003 80.084 185.196 80.5634 185.237L85.9203 210.163C85.4999 210.872 85.3321 211.702 85.4443 212.518C85.5565 213.334 85.942 214.089 86.5382 214.659L86.9772 215.082L87.4854 217.456L89.1604 219.691L89.3712 219.973H96.761L96.8015 219.924C96.8275 219.89 99.4265 216.56 99.2503 212.594C99.233 212.185 98.9471 211.796 98.6468 211.381Z" fill="#2F2E41"/>
<path d="M98.445 127.842C97.8854 127.69 97.299 127.662 96.7272 127.759C96.1554 127.857 95.6121 128.079 95.1356 128.409C94.659 128.739 94.2607 129.169 93.9689 129.669C93.677 130.169 93.4987 130.727 93.4463 131.303L84.7909 134.002L85.152 139.648L97.3215 135.666C98.2979 135.69 99.2491 135.355 99.9948 134.726C100.74 134.097 101.229 133.216 101.367 132.252C101.506 131.288 101.285 130.306 100.746 129.493C100.208 128.681 99.3888 128.093 98.445 127.842Z" fill="#9E616A"/>
<path d="M92.7976 137.186L86.3287 139.628L86.1633 139.948C85.9669 140.328 85.6974 140.665 85.3702 140.942C85.043 141.218 84.6645 141.427 84.2562 141.557C83.848 141.687 83.4181 141.736 82.991 141.7C82.5638 141.665 82.1479 141.546 81.767 141.35L67.2268 146.839C67.2268 146.839 60.7335 140.358 56.1105 134.574L57.6861 124.908C58.051 122.665 58.8266 120.508 59.9742 118.546C69.4552 120.619 74.8976 133.838 74.8976 133.838L91.9847 130.587L92.7976 137.186Z" fill="#F1DABF"/>
<path d="M58.7748 110.003C56.1669 110.706 53.2918 109.772 51.2565 108C49.2213 106.228 47.9481 103.718 47.2146 101.125C46.6773 99.2255 46.4226 97.1173 47.2704 95.3344C48.1182 93.5515 50.3999 92.3486 52.1603 93.2492C51.0743 91.9873 51.6169 89.9001 52.8852 88.8205C54.1535 87.741 55.8951 87.4315 57.5538 87.2623C59.961 87.0167 62.4476 86.9893 64.7383 87.7671C67.029 88.545 69.1103 90.2456 69.8272 92.5507C70.5594 92.8908 71.384 92.979 72.1718 92.8016C72.9597 92.6241 73.6663 92.1911 74.181 91.5703C74.3137 92.2833 74.2071 93.0201 73.8777 93.6666C73.5483 94.3131 73.0145 94.8333 72.3589 95.1468L75.8686 94.0119C76.4722 95.2862 75.4146 96.8633 74.062 97.2714C72.7095 97.6795 71.2495 97.2335 69.966 96.6439C68.6826 96.0543 67.4388 95.309 66.0446 95.079C64.6505 94.8491 63.0129 95.2959 62.3681 96.55C62.0303 97.2068 62.0127 97.9761 61.8166 98.6879C61.6205 99.3997 61.1238 100.138 60.386 100.196C59.9198 100.233 59.4635 99.9851 58.9986 100.036C58.7134 100.092 58.4507 100.229 58.2427 100.432C58.0347 100.635 57.8906 100.894 57.8278 101.177C57.7121 101.745 57.7106 102.33 57.8236 102.899L58.7152 109.696L58.7748 110.003Z" fill="#2F2E41"/>
<path d="M71.8625 161.65L71.3109 160.823L67.2853 154.801L67.2045 154.682L68.4491 148.242L68.8361 146.232L69.6822 141.856L69.4367 131.842L69.2606 124.756L69.2346 123.644L68.3423 120.931C67.9192 119.662 67.2396 118.494 66.3455 117.497C65.4514 116.501 64.3619 115.698 63.1442 115.139L57.1376 112.397C56.4307 112.076 55.625 112.048 54.8976 112.32C54.1702 112.591 53.5807 113.14 53.2589 113.845C53.232 113.904 53.2071 113.964 53.1842 114.024C52.3612 114.136 48.789 114.736 45.7597 117.08C43.6375 118.691 42.156 120.999 41.5782 123.595C41.5724 123.616 41.5695 123.636 41.5637 123.656C41.1623 125.445 40.862 128.267 40.6685 132.092C40.5386 134.621 40.4567 137.584 40.4231 140.981C40.3692 146.643 40.6885 152.302 41.3789 157.923C41.4453 158.459 41.5146 158.991 41.5868 159.527C41.6475 159.976 42.0807 160.406 42.4994 160.817C42.8835 161.195 43.2791 161.587 43.334 161.941C43.3831 162.252 43.1838 162.577 42.947 162.917C42.9181 162.96 42.8863 163.004 42.8575 163.047C42.5629 163.465 42.2597 163.899 42.3377 164.357C42.5196 165.389 42.6264 166.437 42.7275 167.451C42.8404 168.847 43.043 170.234 43.334 171.604C43.435 172.025 43.5505 172.448 43.6805 172.872C43.9837 173.865 44.3505 174.856 44.7085 175.824C45.0175 176.665 45.3381 177.529 45.6095 178.382C45.6615 178.54 45.7106 178.696 45.7568 178.851L45.7799 178.932L45.8637 178.946H45.8694C45.9832 178.744 46.1188 178.555 46.2737 178.382C46.2807 178.371 46.2895 178.361 46.2997 178.353C46.3402 178.304 46.3864 178.252 46.4383 178.197C47.0708 177.509 48.4454 176.273 51.4544 174.191C52.1273 173.727 52.881 173.223 53.7242 172.67C56.8171 170.651 61.1372 168.021 67.1727 164.625C68.6859 163.773 70.3098 162.871 72.0444 161.921L71.8625 161.65Z" fill="#F1DABF"/>
<path d="M104.255 225.011C103.553 224.308 102.719 223.751 101.801 223.372C100.882 222.993 99.8978 222.799 98.9038 222.802L95.7647 220.428L95.3518 220.114L92.5564 221.249C93.5325 221.678 94.5201 222.096 95.5106 222.499C98.6092 223.761 101.773 224.888 105.003 225.881C104.776 225.572 104.526 225.281 104.255 225.011Z" fill="#2F2E41"/>
<path d="M173.975 216.255L170.044 214.38L175.444 197.99L181.247 200.757L173.975 216.255Z" fill="#FFB6B6"/>
<path d="M200.332 213.613C199.188 214.325 198.03 215.016 196.858 215.687V215.696L196.84 215.699L196.835 215.702L196.39 215.811L195.752 214.129L194.279 210.249L190.265 199.679L196.505 198.143L196.858 199.569L199.497 210.246L200.254 213.299L200.332 213.613Z" fill="#FFB6B6"/>
<path d="M184.416 145.016C184.976 145.924 185.871 146.578 186.908 146.837C187.946 147.097 189.044 146.942 189.968 146.405C190.154 146.293 190.33 146.166 190.495 146.024L202.924 153.139L202.384 145.836L190.664 140.199C190.026 139.56 189.194 139.151 188.297 139.034C187.401 138.918 186.491 139.101 185.711 139.556C184.817 140.091 184.174 140.958 183.921 141.967C183.669 142.975 183.828 144.042 184.365 144.933C184.381 144.961 184.398 144.989 184.416 145.016Z" fill="#FFB6B6"/>
<path d="M197.58 150.46L199.777 151.795L209.645 157.797C210.292 158.201 211.014 158.474 211.767 158.6C212.521 158.726 213.292 158.703 214.036 158.532C214.781 158.361 215.484 158.046 216.107 157.603C216.729 157.161 217.258 156.601 217.663 155.955L217.666 155.95C218.397 154.749 218.655 153.321 218.392 151.942L214.006 130.088C213.844 129.23 213.498 128.417 212.992 127.705C212.486 126.993 211.832 126.398 211.074 125.961C210.317 125.524 209.473 125.255 208.602 125.173C207.73 125.091 206.851 125.198 206.025 125.486C204.636 125.973 203.486 126.969 202.807 128.272C202.129 129.575 201.974 131.087 202.373 132.5L206.959 148.009L199.929 144.741L197.58 150.46Z" fill="#F1DABF"/>
<path d="M238.041 172.008C238.038 171.999 238.032 171.967 238.023 171.918L238.015 171.887C237.994 171.783 237.971 171.668 237.945 171.541C237.356 168.623 236.599 165.74 235.678 162.909C235.133 161.175 234.41 159.501 233.521 157.914C233.492 157.862 233.461 157.811 233.429 157.759L233.322 157.586L232.424 157.914L232.389 157.926L218.736 162.917L214.788 164.36L214.664 164.406L213.991 167.143L204.551 165.924L196.858 164.931L194.649 164.646C193.691 164.521 192.718 164.588 191.786 164.842C190.855 165.096 189.983 165.533 189.222 166.126C188.428 166.74 187.765 167.505 187.271 168.378C186.776 169.25 186.461 170.212 186.343 171.207C186.314 171.426 186.297 171.648 186.288 171.866L185.621 196.686V196.718L185.93 197.334L192.385 210.249H196.858L199.497 210.246H201.643L197.181 198.987L197.282 198.835C197.702 198.193 197.967 197.463 198.055 196.701C198.144 195.94 198.054 195.169 197.793 194.448L198.296 192.996C199.338 189.998 198.845 188.558 198.221 186.737C197.661 185.257 197.331 183.7 197.245 182.12L197.141 180.067C199.76 180.525 202.2 181.034 204.551 181.547C205.336 181.717 206.114 181.889 206.884 182.063C209.076 182.549 211.193 183.019 213.266 183.411C217.465 184.209 221.488 184.695 225.62 184.393C225.701 184.387 225.782 184.381 225.863 184.373C226.868 184.292 227.878 184.162 228.901 183.981C229.475 183.877 230.053 183.759 230.636 183.621C230.798 183.581 230.963 183.54 231.124 183.5C231.573 183.382 232.006 183.209 232.412 182.984C232.99 182.663 233.528 182.274 234.015 181.827C234.018 181.824 234.021 181.824 234.021 181.821C234.818 180.692 235.595 179.545 236.351 178.382C236.758 177.757 237.163 177.126 237.558 176.492C238.136 174.911 238.355 173.315 238.041 172.008Z" fill="#2F2E41"/>
<path d="M238.136 167.344C238.093 167.16 238.038 166.973 237.98 166.791C237.521 165.417 236.987 164.069 236.38 162.753C235.699 161.255 234.881 159.651 233.908 157.914C233.437 157.073 232.931 156.199 232.389 155.29C232.118 154.835 231.836 154.372 231.543 153.899C231.532 153.877 231.519 153.856 231.505 153.836L231.422 153.698L217.913 155.501L212.882 156.172L212.582 158.672L212.51 159.291C212.507 159.291 212.507 159.291 212.51 159.294L212.307 160.982V160.985L212.039 163.214L212.016 163.211L204.551 162.246L196.858 161.253L192.725 160.72C191.768 160.595 190.795 160.662 189.863 160.916C188.932 161.17 188.06 161.607 187.299 162.2C186.505 162.814 185.842 163.58 185.347 164.452C184.853 165.324 184.538 166.286 184.42 167.281C184.394 167.483 184.377 167.69 184.368 167.895L180.469 177.109C178.137 182.619 176.651 188.449 176.063 194.402L173.204 203.518L173.611 203.556L179.67 204.117L181.269 204.267L184.793 199.137C185.194 198.552 185.575 197.95 185.93 197.334C186.515 196.327 187.035 195.284 187.487 194.212L195.108 176.124C195.697 176.224 196.28 176.32 196.858 176.412C199.529 176.844 202.093 177.196 204.551 177.469C212.541 178.359 219.461 178.428 225.62 177.673C227.35 177.463 229.022 177.186 230.636 176.844C231.228 176.72 231.813 176.586 232.389 176.443C232.525 176.412 232.658 176.38 232.791 176.345C233.984 176.038 235.081 175.438 235.982 174.598C236.882 173.759 237.557 172.708 237.945 171.541C238.408 170.189 238.474 168.733 238.136 167.344Z" fill="#2F2E41"/>
<path d="M209.409 112.944C214.57 112.944 218.754 108.678 218.754 103.416C218.754 98.1542 214.57 93.8884 209.409 93.8884C204.249 93.8884 200.065 98.1542 200.065 103.416C200.065 108.678 204.249 112.944 209.409 112.944Z" fill="#FFB6B6"/>
<path d="M231.598 154.219C231.583 154.112 231.566 154.006 231.543 153.899C231.321 152.73 230.743 151.583 230.186 150.471C229.654 149.412 229.149 148.409 228.941 147.413C228.736 146.43 228.857 145.445 228.976 144.495C229.103 143.464 229.236 142.398 228.938 141.364C227.43 136.083 225.358 130.979 222.758 126.139C222.103 124.01 220.845 122.116 219.137 120.682C217.429 119.249 215.342 118.337 213.128 118.057C213.386 117.575 213.494 117.027 213.437 116.484C213.4 116.133 213.295 115.793 213.126 115.483C212.957 115.173 212.728 114.899 212.452 114.678C212.187 114.465 211.882 114.307 211.556 114.212C211.229 114.117 210.887 114.087 210.549 114.125L206.206 114.612C205.509 114.699 204.876 115.057 204.442 115.608C204.009 116.158 203.812 116.857 203.892 117.553C203.917 117.767 203.965 117.977 204.037 118.18C200.005 123.302 197.935 127.968 197.744 132.38V132.383C197.721 132.893 197.724 133.403 197.753 133.913C197.844 135.56 198.203 137.182 198.816 138.714C199.539 140.485 200.507 142.145 201.692 143.648C201.935 143.953 202.186 144.253 202.446 144.547C202.688 144.835 202.96 145.137 203.26 145.454L204.019 146.641L204.727 147.75L208.51 156.457L210.436 156.393L210.705 158.309L210.768 158.755L212.016 163.211L212.108 163.545L213.815 162.736L223.997 157.914L231.609 154.308L231.598 154.219Z" fill="#F1DABF"/>
<path opacity="0.2" d="M198.93 138.668C199.798 140.789 201.019 142.749 202.54 144.465C202.801 144.776 203.076 145.081 203.364 145.386L204.842 147.699C210.291 143.626 214.706 127.586 214.706 127.586L208.558 126.393L198.93 138.668Z" fill="black"/>
<path d="M195.208 113.834C195.746 114.757 195.903 115.852 195.643 116.888C195.384 117.923 194.73 118.817 193.821 119.379C193.634 119.49 193.438 119.586 193.236 119.665L193.671 133.952L187.468 130.058L188.006 117.087C187.742 116.224 187.772 115.298 188.091 114.454C188.41 113.61 189 112.894 189.77 112.42C190.66 111.883 191.727 111.721 192.736 111.969C193.746 112.217 194.615 112.854 195.153 113.742C195.172 113.772 195.19 113.803 195.208 113.834Z" fill="#FFB6B6"/>
<path d="M194.216 128.559L187.395 129.527L187.688 143.617C187.705 144.622 187.979 145.606 188.485 146.476C188.991 147.345 189.711 148.071 190.577 148.585C191.636 149.206 192.868 149.467 194.088 149.329C195.308 149.191 196.451 148.661 197.342 147.819L213.448 132.368C214.581 131.296 215.259 129.832 215.343 128.276C215.426 126.72 214.909 125.192 213.898 124.005C212.906 122.835 211.49 122.105 209.959 121.977C208.429 121.848 206.91 122.332 205.736 123.32C205.691 123.359 205.645 123.398 205.601 123.438C205.441 123.58 205.29 123.731 205.147 123.889L194.513 136.091L194.216 128.559Z" fill="#F1DABF"/>
<path d="M200.505 213.253L200.254 213.3L196.858 213.925L195.752 214.129L194.01 214.449L194.628 216.934C195.371 216.534 196.104 216.122 196.835 215.702L196.84 215.699L196.858 215.696V215.687C198.03 215.019 199.188 214.328 200.332 213.613C200.413 213.564 200.493 213.516 200.574 213.461L200.505 213.253Z" fill="#2F2E41"/>
<path d="M175.231 213.579L170.977 211.545L170.31 211.226L169.245 213.835L161.806 215.468C161.438 215.549 161.105 215.744 160.857 216.027C160.609 216.309 160.457 216.663 160.425 217.037C160.393 217.411 160.481 217.786 160.678 218.107C160.874 218.427 161.168 218.676 161.517 218.818L168.786 221.776L171.093 219.705L170.527 222.485L173.264 223.599L176.265 214.074L175.231 213.579Z" fill="#2F2E41"/>
<path d="M234.414 99.2842C232.826 97.4368 232.071 94.9856 230.801 92.8877C229.531 90.7898 227.322 88.9122 224.987 89.4004C223.378 89.7369 222.134 91.1532 221.505 92.7322C220.875 94.3112 220.757 96.0525 220.647 97.7584C220.686 94.2527 218.37 90.8542 215.18 89.7356C211.991 88.617 208.173 89.8647 206.169 92.6811C205.294 91.8725 204.153 91.4121 202.96 91.3871C201.768 91.3622 200.608 91.7744 199.7 92.5457C197.907 94.1439 197.51 97.1858 198.829 99.2243C200.147 101.263 203.003 102.022 205.098 100.892L205.839 101.571C205.422 103.026 206.231 104.744 207.59 105.292C208.692 105.736 210.248 105.662 210.661 106.816C210.949 107.622 210.41 108.482 209.837 109.102C209.264 109.721 208.584 110.361 208.515 111.218C208.411 112.511 209.751 113.417 210.969 113.69C213.906 114.348 217.166 112.992 218.858 110.406C218.891 110.356 218.927 110.306 218.965 110.256C219.915 109.045 220.607 107.653 220.999 106.165C221.392 104.678 221.476 103.127 221.246 101.606C221.151 101.008 221.247 100.564 221.66 100.422C223.446 99.8105 228.448 101.094 229.962 102.255C231.476 103.415 232.688 104.95 234.146 106.186C235.604 107.421 237.463 108.374 239.314 108.037C240.797 107.768 242.059 106.694 242.907 105.399C243.756 104.104 244.244 102.594 244.681 101.094C241.402 102.983 236.914 102.192 234.414 99.2842Z" fill="#2F2E41"/>
<path d="M204.55 156.078V210.862C203.504 211.579 202.445 212.277 201.373 212.956V159.71C201.373 158.167 200.853 156.914 200.215 156.911H152.136C151.495 156.914 150.978 158.167 150.975 159.71V230.41C150.334 230.474 149.693 230.534 149.052 230.586C148.786 230.609 148.518 230.629 148.252 230.649C148.099 230.367 147.949 230.082 147.799 229.794V156.078C147.799 155.652 147.816 155.223 147.845 154.799C148.105 151.205 149.396 148.578 150.906 148.572H201.442C201.625 148.573 201.806 148.612 201.974 148.685C203.239 149.22 204.238 151.571 204.489 154.609C204.53 155.093 204.553 155.586 204.55 156.078Z" fill="#E4E4E4"/>
<path d="M127.408 156.078V230.191C127.365 230.26 127.321 230.327 127.278 230.396C126.192 230.286 125.111 230.161 124.035 230.018V159.71C124.035 158.167 123.484 156.914 122.805 156.911H71.7747C71.0961 156.914 70.5445 158.167 70.5445 159.71V208.52C69.4038 207.682 68.2795 206.822 67.1716 205.942V156.078C67.1716 155.652 67.1889 155.223 67.2207 154.799C67.495 151.205 68.8667 148.578 70.4723 148.572H124.107C124.301 148.573 124.492 148.611 124.67 148.685C126.013 149.22 127.076 151.571 127.345 154.609C127.388 155.093 127.408 155.586 127.408 156.078Z" fill="#E4E4E4"/>
<path d="M110.306 131.449L113.651 146.125L115.788 148.46H117.329L110.975 121.775L110.661 126.309V126.312L110.306 131.449Z" fill="#3F3D56"/>
<path d="M121.443 149.21C121.433 149.187 121.421 149.166 121.405 149.147C121.375 149.077 121.331 149.015 121.276 148.962L120.886 148.573L118.835 146.525C118.685 146.379 118.483 146.296 118.272 146.295H118.264L116.817 146.304L115.572 146.312L113.834 146.324L101.994 146.399L94.2111 146.448C94.0003 146.45 93.799 146.535 93.6505 146.685C93.5019 146.834 93.4181 147.035 93.417 147.246C93.4182 147.362 93.4438 147.477 93.492 147.583L93.6422 147.902L93.957 148.573L94.3671 149.452L94.5692 149.884C94.6337 150.021 94.7361 150.138 94.8644 150.219C94.9928 150.301 95.1418 150.345 95.294 150.345H120.71C120.843 150.342 120.974 150.307 121.091 150.242C121.208 150.177 121.307 150.084 121.379 149.972C121.452 149.86 121.496 149.732 121.507 149.599C121.518 149.466 121.496 149.332 121.443 149.21H121.443Z" fill="#3F3D56"/>
<path opacity="0.17" d="M94.3675 149.451L94.5681 149.885C94.6334 150.022 94.7361 150.138 94.8645 150.219C94.9929 150.301 95.1417 150.344 95.2938 150.345H120.71C120.844 150.343 120.975 150.308 121.092 150.243C121.209 150.178 121.308 150.085 121.38 149.973C121.452 149.861 121.496 149.733 121.507 149.6C121.518 149.467 121.496 149.333 121.443 149.211C121.434 149.188 121.421 149.167 121.406 149.148L94.3675 149.451Z" fill="black"/>
<path opacity="0.17" d="M110.661 126.309V126.312L116.102 148.46H117.329L110.975 121.775L110.661 126.309Z" fill="black"/>
<path d="M119.196 64.3275L118.399 64.221C118.181 64.1925 117.959 64.2516 117.784 64.3851L117.308 64.751L112.003 71.3699C111.828 71.5049 111.713 71.7038 111.685 71.9229L111.388 74.1753L103.983 130.367C103.957 130.575 104.01 130.786 104.131 130.958L107.619 140.549L107.723 140.699L107.948 141.018C108.064 141.181 108.234 141.297 108.428 141.347L108.933 141.473C109.048 141.502 109.167 141.506 109.284 141.485C109.4 141.465 109.511 141.419 109.609 141.353C109.707 141.287 109.79 141.201 109.851 141.1C109.913 141 109.953 140.888 109.967 140.771L110.871 133.921V133.918L111.448 129.523L111.936 125.816V125.813L119.918 65.2608C119.947 65.0421 119.888 64.821 119.753 64.6461C119.618 64.4712 119.42 64.3568 119.2 64.3281L119.196 64.3275Z" fill="#3F3D56"/>
<path opacity="0.17" d="M117.306 64.7511L107.619 140.55L107.724 140.698L107.948 141.017C108.064 141.18 108.234 141.296 108.428 141.346L108.934 141.473C109.048 141.501 109.168 141.505 109.284 141.484C109.4 141.463 109.511 141.418 109.608 141.352C109.706 141.286 109.788 141.2 109.85 141.1C109.912 140.999 109.952 140.887 109.967 140.771L119.917 65.2616C119.946 65.0423 119.887 64.8206 119.752 64.6452C119.617 64.4698 119.417 64.355 119.197 64.3262L118.398 64.2214C118.29 64.2068 118.18 64.2138 118.074 64.2422C117.968 64.2705 117.869 64.3195 117.783 64.3863L117.306 64.7511Z" fill="black"/>
<path d="M117.021 66.9188L111.88 74.238L105.769 120.611L109.082 127.166L117.021 66.9188Z" fill="#F1DABF"/>
<path d="M167.101 131.449L163.756 146.125L161.619 148.46H160.078L166.432 121.775L166.746 126.309V126.312L167.101 131.449Z" fill="#3F3D56"/>
<path d="M183.196 146.448L163.576 146.324L161.835 146.312L160.593 146.304L159.146 146.295H159.134C158.925 146.295 158.723 146.378 158.574 146.525L156.131 148.962C156.077 149.015 156.033 149.078 156.001 149.147C155.986 149.166 155.973 149.187 155.964 149.21C155.911 149.332 155.889 149.466 155.9 149.599C155.911 149.732 155.955 149.86 156.027 149.972C156.1 150.084 156.199 150.177 156.316 150.242C156.432 150.307 156.563 150.342 156.697 150.345H182.113C182.265 150.344 182.414 150.301 182.543 150.219C182.672 150.138 182.775 150.021 182.84 149.884L183.04 149.452L183.45 148.573L183.915 147.583C183.964 147.477 183.99 147.362 183.99 147.246C183.989 147.035 183.905 146.834 183.756 146.685C183.608 146.535 183.406 146.45 183.196 146.448Z" fill="#3F3D56"/>
<path opacity="0.17" d="M183.04 149.451L182.839 149.885C182.774 150.022 182.671 150.138 182.543 150.219C182.414 150.301 182.265 150.344 182.113 150.345H156.697C156.563 150.343 156.432 150.308 156.315 150.243C156.199 150.178 156.1 150.085 156.027 149.973C155.955 149.861 155.911 149.733 155.9 149.6C155.889 149.467 155.911 149.333 155.964 149.211C155.973 149.188 155.986 149.167 156.001 149.148L183.04 149.451Z" fill="black"/>
<path opacity="0.17" d="M166.746 126.309V126.312L161.305 148.46H160.078L166.432 121.775L166.746 126.309Z" fill="black"/>
<path d="M173.423 130.367L165.722 71.9229C165.693 71.7038 165.579 71.5049 165.404 71.3698L160.102 64.7509L159.625 64.3851C159.449 64.2518 159.227 64.1929 159.007 64.221L158.21 64.3275C157.991 64.3558 157.791 64.47 157.656 64.645C157.52 64.82 157.46 65.0415 157.488 65.2607L165.47 125.816V125.819L165.958 129.523L166.539 133.921V133.927L167.44 140.771C167.454 140.888 167.494 141.001 167.556 141.101C167.618 141.202 167.702 141.287 167.801 141.352C167.898 141.419 168.008 141.464 168.124 141.485C168.24 141.506 168.359 141.502 168.474 141.473L168.979 141.347C169.173 141.297 169.342 141.181 169.458 141.018L169.684 140.699L169.788 140.549L173.276 130.957C173.398 130.786 173.451 130.575 173.423 130.367Z" fill="#3F3D56"/>
<path opacity="0.17" d="M160.101 64.7512L169.788 140.55L169.683 140.699L169.459 141.017C169.343 141.18 169.173 141.296 168.979 141.346L168.473 141.473C168.359 141.501 168.239 141.505 168.123 141.484C168.007 141.464 167.897 141.419 167.799 141.352C167.701 141.286 167.619 141.2 167.557 141.1C167.495 140.999 167.455 140.887 167.44 140.771L157.49 65.2617C157.461 65.0425 157.521 64.8208 157.656 64.6453C157.791 64.4699 157.99 64.3552 158.21 64.3263L159.009 64.2215C159.117 64.2069 159.227 64.214 159.333 64.2423C159.439 64.2706 159.538 64.3196 159.624 64.3864L160.101 64.7512Z" fill="black"/>
<path d="M160.386 66.9188L165.527 74.238L171.638 120.611L168.325 127.166L160.386 66.9188Z" fill="#F1DABF"/>
<path d="M64.8307 160.414C64.8315 160.559 64.8189 160.704 64.7931 160.846C64.7816 160.915 64.7671 160.982 64.7498 161.048C64.6092 161.584 64.2945 162.057 63.8551 162.396C63.4157 162.734 62.8763 162.917 62.3212 162.917H51.4544V188.768C51.4549 189.314 51.2753 189.846 50.9433 190.28C50.6949 189.989 50.4495 189.698 50.2069 189.404C48.9074 187.855 47.6512 186.271 46.4383 184.652V162.917H41.5868C40.9399 162.917 40.3182 162.667 39.8515 162.22C39.3849 161.774 39.1093 161.164 39.0825 160.519C39.0556 159.875 39.2796 159.245 39.7075 158.761C40.1354 158.277 40.7343 157.977 41.3789 157.923C41.4482 157.917 41.5175 157.914 41.5868 157.914H62.3212C62.9863 157.914 63.6243 158.177 64.0949 158.646C64.5655 159.115 64.8301 159.751 64.8307 160.414Z" fill="#3F3D56"/>
<path d="M237.991 160.414C237.992 160.921 237.838 161.416 237.55 161.833C237.262 162.251 236.854 162.572 236.38 162.753C236.155 162.839 235.919 162.891 235.678 162.909C235.615 162.914 235.548 162.917 235.485 162.917H230.636V186.38C230.564 186.475 230.489 186.57 230.414 186.665C229.273 188.12 228.098 189.546 226.888 190.943C226.502 190.726 226.18 190.41 225.958 190.027C225.735 189.645 225.618 189.21 225.62 188.768V162.917H214.751C214.43 162.918 214.112 162.857 213.815 162.736C213.441 162.587 213.108 162.349 212.846 162.045C212.583 161.74 212.399 161.376 212.307 160.985V160.982C212.173 160.413 212.244 159.815 212.51 159.294C212.507 159.291 212.507 159.291 212.51 159.291C212.624 159.062 212.774 158.852 212.954 158.669C213.188 158.43 213.467 158.24 213.776 158.111C214.084 157.981 214.416 157.914 214.751 157.914H235.485C236.15 157.914 236.787 158.177 237.257 158.646C237.727 159.115 237.991 159.75 237.991 160.413L237.991 160.414Z" fill="#3F3D56"/>
<path d="M237.826 112.216C236.793 112.216 235.771 112.419 234.818 112.813C233.864 113.207 232.998 113.784 232.268 114.512C231.539 115.24 230.96 116.104 230.565 117.055C230.17 118.006 229.966 119.025 229.966 120.055V120.055C229.967 121.873 230.601 123.635 231.76 125.038C232.919 126.442 234.531 127.4 236.321 127.748V140.569H241.337V112.216H237.826Z" fill="#3F3D56"/>
<path d="M100.612 140.839C100.112 140.546 99.5532 140.366 98.9756 140.312C98.3981 140.257 97.8156 140.33 97.2692 140.525C96.7228 140.719 96.2258 141.031 95.8133 141.438C95.4007 141.844 95.0826 142.336 94.8813 142.879L85.8199 143.232L84.599 147.441L97.4811 148.099C98.4176 148.376 99.4234 148.301 100.308 147.887C101.192 147.474 101.894 146.751 102.28 145.856C102.666 144.961 102.709 143.956 102.402 143.031C102.095 142.107 101.458 141.327 100.612 140.839H100.612Z" fill="#9E616A"/>
<path d="M93.1689 148.553L83.8609 148.437L82.6827 148.421L63.7452 148.183C63.7452 148.183 58.6026 143.29 54.1246 138.252L54.7523 133.724C55.3645 129.28 57.5746 125.21 60.9712 122.27C67.3847 126.544 71.104 135.005 71.104 135.005L77.3402 137.788C81.729 137.984 86.0055 139.233 89.8068 141.43L91.8576 142.615L93.1689 148.553Z" fill="#F1DABF"/>
<path d="M122.413 229.795H155.987C153.697 230.129 151.386 230.393 149.053 230.587H129.347C127.014 230.394 124.702 230.13 122.413 229.795Z" fill="#CCCCCC"/>
<path d="M129.163 212.937C129.813 207.088 133.364 201.286 138.922 199.311C136.801 205.351 136.89 211.944 139.173 217.925C140.062 220.228 141.291 222.698 140.516 225.041C140.033 226.5 138.819 227.626 137.456 228.339C136.092 229.052 134.572 229.403 133.072 229.748L132.779 229.996C130.318 224.647 128.514 218.786 129.163 212.937Z" fill="#CCCCCC"/>
<path d="M138.979 199.421C135.776 203.098 133.817 207.688 133.378 212.54C133.265 213.582 133.318 214.636 133.534 215.663C133.777 216.656 134.282 217.566 134.997 218.298C135.649 218.995 136.398 219.631 136.87 220.474C137.105 220.909 137.245 221.388 137.281 221.881C137.317 222.373 137.249 222.868 137.08 223.333C136.689 224.5 135.901 225.459 135.097 226.369C134.205 227.38 133.262 228.415 132.895 229.745C132.851 229.906 132.603 229.827 132.647 229.667C133.286 227.354 135.51 226.016 136.552 223.927C137.038 222.952 137.232 221.825 136.751 220.81C136.33 219.921 135.558 219.264 134.891 218.565C134.184 217.86 133.659 216.994 133.365 216.041C133.097 215.029 133.004 213.978 133.089 212.935C133.244 210.583 133.769 208.271 134.644 206.081C135.629 203.577 137.036 201.26 138.805 199.229C138.914 199.103 139.088 199.296 138.979 199.421H138.979Z" fill="white"/>
<path d="M133.427 210.969C132.621 210.785 131.907 210.322 131.412 209.661C130.917 209 130.673 208.186 130.725 207.363C130.728 207.329 130.743 207.298 130.768 207.275C130.793 207.253 130.826 207.241 130.86 207.242C130.893 207.244 130.925 207.258 130.949 207.282C130.972 207.306 130.985 207.338 130.985 207.372C130.936 208.139 131.162 208.897 131.625 209.512C132.087 210.126 132.754 210.555 133.505 210.722C133.669 210.758 133.59 211.005 133.427 210.969H133.427Z" fill="white"/>
<path d="M134.619 217.989C136.059 217.105 137.112 215.713 137.568 214.089C137.613 213.928 137.861 214.007 137.816 214.167C137.338 215.856 136.239 217.302 134.739 218.219C134.596 218.306 134.477 218.075 134.619 217.989Z" fill="white"/>
<path d="M135.873 203.82C136.17 203.956 136.497 204.016 136.823 203.995C137.149 203.974 137.465 203.873 137.742 203.7C137.884 203.611 138.003 203.842 137.862 203.93C137.555 204.119 137.206 204.231 136.846 204.255C136.485 204.279 136.125 204.214 135.795 204.067C135.763 204.056 135.736 204.033 135.72 204.002C135.705 203.972 135.701 203.937 135.71 203.904C135.721 203.872 135.744 203.844 135.774 203.828C135.805 203.813 135.841 203.809 135.873 203.82L135.873 203.82Z" fill="white"/>
<path d="M156.081 209.514C155.994 209.572 155.907 209.63 155.82 209.69C154.655 210.477 153.555 211.357 152.532 212.322C152.452 212.395 152.372 212.471 152.294 212.546C149.855 214.896 147.875 217.677 146.454 220.748C145.889 221.971 145.419 223.234 145.047 224.528C144.533 226.315 144.118 228.293 143.074 229.762C142.966 229.917 142.849 230.065 142.724 230.205L133.105 230.333C133.083 230.322 133.061 230.314 133.039 230.303L132.655 230.326C132.67 230.258 132.686 230.188 132.701 230.12C132.709 230.08 132.72 230.04 132.728 230.001C132.734 229.975 132.74 229.948 132.744 229.924C132.746 229.915 132.749 229.907 132.751 229.9C132.755 229.876 132.761 229.854 132.765 229.832C132.856 229.439 132.951 229.046 133.048 228.653C133.048 228.65 133.048 228.65 133.05 228.648C133.761 225.645 134.828 222.737 136.226 219.985C136.269 219.903 136.312 219.819 136.359 219.738C137.007 218.519 137.754 217.355 138.593 216.258C139.054 215.658 139.545 215.083 140.064 214.533C141.409 213.115 142.969 211.916 144.687 210.982C148.113 209.119 152.097 208.37 155.799 209.43C155.894 209.457 155.986 209.485 156.081 209.514Z" fill="#CCCCCC"/>
<path d="M156.061 209.636C151.284 210.649 146.949 213.137 143.67 216.747C142.951 217.512 142.356 218.385 141.909 219.334C141.504 220.273 141.358 221.303 141.486 222.317C141.587 223.265 141.8 224.223 141.668 225.179C141.594 225.667 141.416 226.134 141.148 226.549C140.879 226.964 140.526 227.318 140.111 227.587C139.094 228.285 137.886 228.577 136.695 228.821C135.372 229.093 133.994 229.354 132.899 230.194C132.766 230.296 132.616 230.085 132.748 229.983C134.654 228.52 137.238 228.788 139.33 227.745C140.307 227.258 141.142 226.476 141.371 225.375C141.571 224.414 141.352 223.425 141.241 222.467C141.101 221.479 141.206 220.472 141.546 219.535C141.943 218.566 142.503 217.671 143.201 216.89C144.744 215.105 146.559 213.573 148.579 212.351C150.877 210.943 153.4 209.937 156.038 209.378C156.201 209.343 156.223 209.602 156.061 209.636H156.061Z" fill="white"/>
<path d="M144.657 215.523C144.125 214.892 143.834 214.093 143.838 213.268C143.841 212.443 144.139 211.647 144.677 211.02C144.786 210.894 144.988 211.058 144.879 211.184C144.377 211.766 144.1 212.508 144.098 213.276C144.096 214.044 144.37 214.788 144.869 215.372C144.977 215.499 144.765 215.649 144.657 215.523Z" fill="white"/>
<path d="M141.372 221.843C143.055 222.002 144.736 221.523 146.08 220.5C146.213 220.399 146.364 220.61 146.231 220.711C144.83 221.773 143.08 222.268 141.329 222.099C141.162 222.083 141.206 221.827 141.372 221.843V221.843Z" fill="white"/>
<path d="M150.926 211.283C151.081 211.57 151.305 211.814 151.578 211.993C151.851 212.172 152.165 212.281 152.49 212.31C152.657 212.324 152.613 212.579 152.447 212.565C152.088 212.532 151.742 212.412 151.44 212.214C151.138 212.017 150.889 211.749 150.714 211.434C150.695 211.405 150.688 211.371 150.694 211.337C150.699 211.304 150.718 211.273 150.745 211.253C150.773 211.233 150.808 211.225 150.842 211.231C150.876 211.236 150.906 211.255 150.926 211.283Z" fill="white"/>
<path d="M161.07 217.663C162.76 217.663 164.129 216.297 164.129 214.611C164.129 212.926 162.76 211.56 161.07 211.56C159.381 211.56 158.011 212.926 158.011 214.611C158.011 216.297 159.381 217.663 161.07 217.663Z" fill="#CCCCCC"/>
<path d="M171.057 226.573C170.87 226.628 170.679 226.682 170.489 226.734C168.759 227.218 167.016 227.661 165.262 228.062C165.06 227.655 164.951 227.209 164.944 226.755C164.938 226.301 165.032 225.851 165.222 225.439C165.411 225.026 165.691 224.66 166.04 224.369C166.389 224.078 166.799 223.868 167.239 223.755C167.68 223.642 168.141 223.628 168.587 223.715C169.034 223.802 169.456 223.987 169.822 224.257C170.187 224.527 170.488 224.875 170.702 225.276C170.916 225.676 171.037 226.12 171.057 226.573Z" fill="#CCCCCC"/>
<path d="M188.534 220.023C188.301 220.133 188.067 220.242 187.833 220.349C187.579 220.47 187.322 220.585 187.067 220.7C186.782 220.83 186.499 220.956 186.213 221.083C185.138 221.561 184.053 222.022 182.964 222.466C182.949 222.443 182.935 222.417 182.921 222.391C182.539 221.678 182.457 220.843 182.692 220.07C182.927 219.297 183.459 218.648 184.173 218.266C184.887 217.883 185.723 217.799 186.499 218.032C187.275 218.264 187.927 218.794 188.312 219.505C188.401 219.671 188.475 219.844 188.534 220.023Z" fill="#CCCCCC"/>
<path d="M171.86 210.173C173.549 210.173 174.919 208.807 174.919 207.122C174.919 205.437 173.549 204.071 171.86 204.071C170.17 204.071 168.801 205.437 168.801 207.122C168.801 208.807 170.17 210.173 171.86 210.173Z" fill="#CCCCCC"/>
<path d="M143.799 39.9504C125.805 44.6712 105.868 47.5429 85.5957 48.3292C82.6247 48.4906 79.6467 48.4704 76.6782 48.2687C70.1547 47.7214 64.5668 45.6764 58.3436 44.5589C55.3518 44.0231 52.0193 43.6314 49.0074 43.0525C49.7033 42.1913 50.4118 41.3406 51.1328 40.5005C57.6274 41.0478 64.2231 42.8393 70.7958 43.6717C81.9686 45.0888 94.4872 43.5076 102.957 39.6076C107.066 37.7153 110.214 35.3534 114.309 33.4524C114.866 33.1673 115.469 32.9829 116.091 32.9081C117.387 32.79 118.525 33.3113 119.452 33.7779C126.322 37.2372 136.297 40.0483 145.555 38.5016C146.245 39.0402 144.934 39.6537 143.799 39.9504Z" fill="white"/>
<path d="M184.768 52.124C184.853 52.1086 184.938 52.0965 185.022 52.0819C184.667 51.8621 184.332 51.6104 184.022 51.3301L184.768 52.124Z" fill="white"/>
<path d="M240.191 58.9489C236.324 59.2571 232.437 59.4866 228.53 59.6373C225.559 59.7973 222.581 59.7771 219.612 59.5768C213.089 59.0267 207.501 56.9845 201.278 55.867C195.574 54.8445 188.644 54.3519 185.022 52.0823C194.382 50.4664 204.079 53.7557 213.73 54.9799C221.537 55.9373 229.45 55.5476 237.124 53.8277C238.193 55.5041 239.215 57.2111 240.191 58.9489Z" fill="white"/>
<path d="M153.147 102.155C144.088 71.1427 138.756 39.1676 138.756 6.86639V4.52539H135.746V6.86634C135.746 39.1676 130.414 71.1427 121.356 102.155C120.918 103.656 120.696 105.212 120.697 106.775V106.775C120.697 107.367 120.814 107.952 121.041 108.498C121.268 109.045 121.6 109.541 122.019 109.959C122.439 110.378 122.936 110.709 123.484 110.936C124.032 111.162 124.619 111.278 125.212 111.278H131.232C131.232 112.067 131.387 112.848 131.69 113.576C131.992 114.304 132.436 114.966 132.995 115.524C133.554 116.081 134.217 116.524 134.948 116.825C135.678 117.127 136.461 117.282 137.251 117.282C138.042 117.282 138.825 117.127 139.555 116.825C140.285 116.524 140.949 116.081 141.508 115.524C142.067 114.966 142.51 114.304 142.813 113.576C143.115 112.848 143.271 112.067 143.271 111.278H147.955V124.219C147.294 124.238 146.666 124.509 146.199 124.976C145.732 125.442 145.462 126.07 145.444 126.729C145.426 127.388 145.662 128.029 146.103 128.52C146.544 129.011 147.157 129.315 147.816 129.37C148.474 129.425 149.129 129.226 149.646 128.814C150.162 128.403 150.501 127.809 150.593 127.156C150.684 126.504 150.522 125.84 150.139 125.303C149.756 124.766 149.181 124.395 148.533 124.267V111.278H149.291C150.488 111.278 151.636 110.804 152.483 109.959C153.33 109.115 153.805 107.97 153.805 106.775V106.775C153.806 105.212 153.584 103.656 153.147 102.155Z" fill="white"/>
</g>
<defs>
<clipPath id="clip0_162_1160">
<rect width="255" height="231" fill="white"/>
</clipPath>
</defs>
</svg>
