<svg width="260" height="193" viewBox="0 0 260 193" fill="none" xmlns="http://www.w3.org/2000/svg">
<g clip-path="url(#clip0_164_1378)">
<path d="M221.953 191.551C224.712 185.095 226.657 178.069 225.736 171.115C225.421 168.757 224.734 166.464 223.701 164.32C222.869 162.573 221.795 160.951 220.51 159.504C220.065 158.993 219.456 158.654 218.787 158.547C218.118 158.439 217.433 158.57 216.851 158.916C216.761 158.968 216.671 159.023 216.588 159.082C216.137 159.399 215.782 159.833 215.56 160.337C215.517 160.433 215.481 160.533 215.453 160.634C215.325 161.059 215.291 161.506 215.352 161.945C215.837 165.524 215.732 169.158 215.041 172.702C214.864 173.605 214.648 174.499 214.393 175.386C213.821 174.671 213.212 173.987 212.569 173.335C210.903 171.648 208.982 170.234 206.875 169.144H206.872C206.862 169.137 206.855 169.134 206.844 169.127C204.29 167.827 200.884 168.366 198.894 169.251C198.762 169.307 198.637 169.369 198.516 169.428C197.478 169.96 196.962 170.572 197.405 170.973C197.506 171.06 197.606 171.15 197.699 171.24C200.717 174.026 203.189 177.349 204.989 181.039V181.043C205.705 182.512 206.307 184.033 206.792 185.593C207.46 187.748 208.014 190.137 209.319 191.894C209.453 192.078 209.597 192.255 209.752 192.423L221.41 192.329C221.437 192.315 221.461 192.305 221.489 192.291L221.953 192.308C221.936 192.225 221.915 192.142 221.894 192.059V192.053C221.884 192.008 221.87 191.959 221.86 191.918C221.849 191.883 221.842 191.852 221.835 191.824C221.856 191.772 221.877 191.724 221.901 191.672C221.918 191.631 221.936 191.593 221.953 191.551Z" fill="#F0F0F0"/>
<path d="M221.894 192.053C221.891 192.079 221.88 192.103 221.865 192.124C221.849 192.145 221.828 192.161 221.804 192.172C221.78 192.182 221.754 192.186 221.728 192.183C221.702 192.181 221.677 192.171 221.655 192.156C221.176 191.809 220.651 191.531 220.094 191.33C220.091 191.327 220.091 191.33 220.091 191.33C219.388 191.078 218.666 190.886 217.931 190.756C217.924 190.756 217.92 190.753 217.914 190.753C217.616 190.694 217.318 190.642 217.021 190.587C215.574 190.32 214.103 189.999 212.85 189.176C212.34 188.86 211.902 188.44 211.567 187.944C211.231 187.448 211.004 186.886 210.901 186.295C210.717 185.137 210.949 183.972 211.046 182.817C211.053 182.734 211.06 182.647 211.064 182.564C211.071 182.457 211.074 182.353 211.074 182.25C211.11 181.201 210.899 180.159 210.458 179.207C209.892 178.067 209.149 177.023 208.256 176.115C207.796 175.621 207.316 175.145 206.817 174.687H206.813C206.792 174.667 206.775 174.649 206.754 174.632C206.754 174.628 206.751 174.625 206.747 174.622C204.611 172.683 202.189 171.085 199.565 169.884C199.472 169.843 199.375 169.798 199.278 169.756C199.025 169.642 198.772 169.535 198.516 169.428C198.637 169.369 198.762 169.307 198.894 169.251C201.82 170.488 204.521 172.201 206.886 174.321C206.965 174.39 207.045 174.462 207.121 174.535C207.72 175.088 208.29 175.668 208.831 176.274C209.696 177.206 210.397 178.277 210.904 179.442C211.276 180.385 211.44 181.397 211.386 182.409C211.379 182.602 211.365 182.796 211.347 182.993C211.24 184.158 211.001 185.362 211.268 186.527C211.572 187.855 212.604 188.782 213.802 189.349C214.594 189.702 215.426 189.959 216.28 190.116C218.045 190.486 219.869 190.666 221.413 191.614H221.416C221.441 191.631 221.465 191.645 221.486 191.658C221.489 191.658 221.489 191.658 221.489 191.662C221.601 191.728 221.708 191.801 221.811 191.88C221.818 191.883 221.825 191.89 221.832 191.894C221.842 191.901 221.851 191.909 221.859 191.918C221.875 191.936 221.887 191.958 221.893 191.981C221.899 192.005 221.899 192.029 221.894 192.053Z" fill="white"/>
<path d="M207.03 174.654C207.659 173.874 207.99 172.897 207.965 171.896C207.939 170.896 207.558 169.937 206.89 169.191C206.754 169.04 206.514 169.244 206.65 169.394C207.273 170.088 207.628 170.981 207.65 171.913C207.672 172.845 207.36 173.754 206.77 174.476C206.642 174.634 206.903 174.81 207.03 174.654Z" fill="white"/>
<path d="M211.174 182.239C209.14 182.475 207.09 181.937 205.436 180.731C205.272 180.611 205.094 180.872 205.258 180.991C206.983 182.243 209.116 182.799 211.233 182.548C211.435 182.524 211.375 182.215 211.174 182.239Z" fill="white"/>
<path d="M199.586 169.846C199.579 169.86 199.572 169.87 199.565 169.884C199.374 170.234 199.108 170.538 198.785 170.772C198.463 171.007 198.092 171.166 197.699 171.24C197.606 171.15 197.506 171.06 197.405 170.973C197.421 170.964 197.439 170.958 197.457 170.956C197.834 170.915 198.196 170.784 198.512 170.576C198.829 170.367 199.091 170.086 199.278 169.756C199.295 169.729 199.312 169.697 199.326 169.67C199.338 169.653 199.353 169.638 199.37 169.627C199.387 169.615 199.406 169.607 199.427 169.604C199.447 169.6 199.468 169.6 199.488 169.604C199.508 169.608 199.527 169.617 199.544 169.628C199.578 169.653 199.6 169.689 199.608 169.729C199.616 169.769 199.608 169.811 199.586 169.846Z" fill="white"/>
<path d="M25.3581 1.8822C19.1346 1.88921 13.1679 4.36214 8.7672 8.75845C4.36648 13.1548 1.89107 19.1154 1.88405 25.3328V115.203C1.89107 121.42 4.36648 127.381 8.7672 131.777C13.1679 136.173 19.1346 138.646 25.3581 138.653H234.642C240.865 138.646 246.832 136.173 251.233 131.777C255.634 127.381 258.109 121.42 258.116 115.203V25.3328C258.109 19.1154 255.634 13.1548 251.233 8.75845C246.832 4.36214 240.865 1.88921 234.642 1.8822H25.3581Z" fill="white"/>
<path d="M234.642 140.535H25.3581C18.6351 140.528 12.1895 137.856 7.43562 133.107C2.68169 128.358 0.00761308 121.919 4.57764e-05 115.203V25.3327C0.00761308 18.6164 2.68169 12.1773 7.43562 7.42813C12.1895 2.67896 18.6351 0.00755972 25.3581 0H234.642C241.365 0.00755515 247.811 2.67896 252.564 7.42812C257.318 12.1773 259.992 18.6164 260 25.3327V115.203C259.992 121.919 257.318 128.358 252.564 133.107C247.811 137.856 241.365 140.528 234.642 140.535ZM25.3581 3.76433C19.6341 3.77079 14.1464 6.04524 10.0989 10.0887C6.05135 14.1322 3.77462 19.6144 3.76815 25.3327V115.203C3.77462 120.921 6.05135 126.403 10.0989 130.447C14.1464 134.49 19.6341 136.765 25.3581 136.771H234.642C240.366 136.765 245.854 134.49 249.901 130.447C253.949 126.403 256.225 120.921 256.232 115.203V25.3327C256.225 19.6144 253.949 14.1322 249.901 10.0887C245.854 6.04524 240.366 3.77079 234.642 3.76433H25.3581Z" fill="#E6E6E6"/>
<path d="M130.562 20.4888H31.0334C28.9092 20.4924 26.8731 21.337 25.3711 22.8376C23.869 24.3381 23.0236 26.3722 23.0199 28.4943V73.3401C23.019 73.8159 23.0632 74.2906 23.1518 74.758C23.1832 74.9713 23.2335 75.1784 23.2837 75.3854C23.7396 77.092 24.746 78.6008 26.1469 79.6783C27.5479 80.7557 29.2654 81.3418 31.0334 81.3456H130.562C130.725 81.3456 130.889 81.3394 131.046 81.3268H131.159V81.3205C131.19 81.3215 131.222 81.3195 131.253 81.3143C131.284 81.3143 131.322 81.308 131.353 81.308C131.364 81.309 131.375 81.3068 131.385 81.3017C131.454 81.2954 131.523 81.2892 131.586 81.2829C131.699 81.2641 131.812 81.2515 131.918 81.2327C131.933 81.2276 131.947 81.2254 131.962 81.2264C131.982 81.2168 132.004 81.2125 132.025 81.2139C132.028 81.2115 132.031 81.2097 132.034 81.2086C132.037 81.2075 132.041 81.2072 132.044 81.2076C132.113 81.1951 132.182 81.1825 132.251 81.1637C132.29 81.1584 132.327 81.15 132.364 81.1386C132.503 81.1073 132.641 81.0759 132.773 81.032C132.835 81.0131 132.892 81.0006 132.955 80.9818C133.036 80.9567 133.124 80.9253 133.206 80.8939C133.249 80.8821 133.291 80.8675 133.332 80.85C133.336 80.8499 133.341 80.8488 133.345 80.8466C133.35 80.8444 133.354 80.8413 133.357 80.8375C133.538 80.7735 133.716 80.7002 133.89 80.6179C134.041 80.5489 134.186 80.4736 134.33 80.3983C134.387 80.3732 134.437 80.3418 134.493 80.3105C134.507 80.3044 134.52 80.2959 134.531 80.2854C134.675 80.1976 134.82 80.1097 134.958 80.0281C134.964 80.0219 134.964 80.0156 134.971 80.0156C134.971 80.0156 134.972 80.0155 134.973 80.0152C134.974 80.0149 134.975 80.0144 134.975 80.0138C134.976 80.0132 134.976 80.0125 134.976 80.0118C134.977 80.011 134.977 80.0102 134.977 80.0093C135.125 79.9168 135.267 79.8162 135.404 79.7082H135.41C135.448 79.6768 135.479 79.6517 135.511 79.6266C135.555 79.5952 135.599 79.5576 135.636 79.5262C135.712 79.4635 135.787 79.4007 135.856 79.338C135.899 79.3058 135.939 79.2702 135.975 79.2314C136.082 79.1373 136.183 79.0369 136.283 78.9365C136.337 78.8853 136.387 78.8308 136.434 78.7733C136.512 78.6985 136.585 78.6189 136.654 78.5349C136.717 78.4534 136.786 78.3718 136.848 78.2903C136.923 78.2046 136.992 78.1145 137.056 78.0205C137.169 77.8699 137.269 77.7193 137.37 77.5562C137.451 77.4245 137.533 77.2864 137.608 77.1484C137.646 77.0794 137.684 77.0041 137.721 76.9288C137.728 76.9288 137.728 76.9226 137.728 76.9163C137.797 76.7845 137.86 76.6528 137.916 76.5148C137.941 76.4583 137.966 76.4081 137.985 76.3516C138.035 76.245 138.073 76.1321 138.117 76.0191C138.186 75.8121 138.255 75.5988 138.312 75.3855C138.362 75.1784 138.412 74.9714 138.444 74.7581C138.532 74.2907 138.576 73.8159 138.575 73.3402V28.4943C138.572 26.3722 137.726 24.3381 136.224 22.8376C134.722 21.337 132.686 20.4924 130.562 20.4888Z" fill="white"/>
<path opacity="0.3" d="M138.575 33.3503H23.0199V33.9777H138.575V33.3503Z" fill="white"/>
<path opacity="0.3" d="M138.575 40.2516H23.0199V40.879H138.575V40.2516Z" fill="white"/>
<path opacity="0.3" d="M138.575 47.153H23.0199V47.7803H138.575V47.153Z" fill="white"/>
<path opacity="0.3" d="M138.575 54.0542H23.0199V54.6816H138.575V54.0542Z" fill="white"/>
<path opacity="0.3" d="M138.575 60.9556H23.0199V61.583H138.575V60.9556Z" fill="white"/>
<path opacity="0.3" d="M138.575 67.8568H23.0199V68.4842H138.575V67.8568Z" fill="white"/>
<path opacity="0.3" d="M138.444 74.7581C138.412 74.9713 138.362 75.1784 138.312 75.3854H23.1079C23.07 75.178 23.0448 74.9685 23.0325 74.7581H138.444Z" fill="white"/>
<g opacity="0.1">
<path opacity="0.1" d="M138.575 63.6282V73.3402C138.576 73.8159 138.532 74.2906 138.444 74.7581C138.412 74.9713 138.362 75.1784 138.312 75.3854C138.255 75.5987 138.186 75.8121 138.117 76.0191C138.073 76.132 138.035 76.245 137.985 76.3516C137.966 76.4081 137.941 76.4583 137.916 76.5147C137.86 76.6528 137.797 76.7845 137.728 76.9163C137.728 76.9226 137.728 76.9288 137.721 76.9288C137.684 77.0041 137.646 77.0794 137.608 77.1484C137.533 77.2864 137.451 77.4245 137.37 77.5562C137.269 77.7193 137.169 77.8699 137.056 78.0205C136.992 78.1145 136.923 78.2046 136.848 78.2903C136.786 78.3718 136.716 78.4534 136.654 78.5349C136.585 78.6189 136.512 78.6985 136.434 78.7733C136.387 78.8308 136.337 78.8853 136.283 78.9365C136.183 79.0369 136.082 79.1372 135.975 79.2314C135.939 79.2701 135.899 79.3058 135.856 79.338C135.787 79.4007 135.712 79.4635 135.636 79.5262C135.599 79.5576 135.555 79.5952 135.511 79.6266C135.479 79.6517 135.448 79.6768 135.41 79.7082H135.404C135.267 79.8162 135.125 79.9168 134.977 80.0093C134.977 80.0101 134.977 80.011 134.976 80.0117C134.976 80.0125 134.976 80.0132 134.975 80.0138C134.975 80.0144 134.974 80.0148 134.973 80.0151C134.972 80.0155 134.971 80.0156 134.971 80.0156C134.964 80.0156 134.964 80.0219 134.958 80.0281C134.87 80.0909 134.776 80.1473 134.682 80.2038C134.631 80.2352 134.581 80.2602 134.531 80.2854C134.52 80.2958 134.507 80.3043 134.493 80.3105C134.437 80.3418 134.387 80.3732 134.33 80.3983C134.186 80.4736 134.041 80.5488 133.89 80.6179C133.716 80.7002 133.538 80.7735 133.357 80.8375C133.354 80.8413 133.35 80.8444 133.345 80.8466C133.341 80.8487 133.336 80.8499 133.332 80.85C133.291 80.8674 133.249 80.8821 133.206 80.8939C133.124 80.9253 133.036 80.9567 132.955 80.9817C132.892 81.0006 132.835 81.0131 132.773 81.0319C132.641 81.0758 132.503 81.1072 132.364 81.1386C132.327 81.1499 132.29 81.1583 132.251 81.1637C132.182 81.1825 132.113 81.1951 132.044 81.2076C132.041 81.2071 132.037 81.2075 132.034 81.2086C132.031 81.2097 132.028 81.2115 132.025 81.2139C132.004 81.2125 131.982 81.2168 131.962 81.2264C131.947 81.2254 131.933 81.2275 131.918 81.2327C131.812 81.2515 131.699 81.2641 131.586 81.2829C131.523 81.2891 131.454 81.2954 131.385 81.3017C131.375 81.3068 131.364 81.309 131.353 81.308C131.284 81.3143 131.221 81.3205 131.159 81.3268H131.146C131.077 81.3331 131.008 81.3331 130.939 81.3393C130.813 81.3456 130.688 81.3456 130.562 81.3456H31.0334C29.2654 81.3417 27.5479 80.7557 26.1469 79.6782C24.746 78.6008 23.7396 77.092 23.2837 75.3854H23.1078C23.07 75.178 23.0448 74.9685 23.0325 74.758C23.0262 74.6388 23.0199 74.5133 23.0199 74.3941V63.4525C24.338 63.4913 25.6452 63.7044 26.9073 64.0861C30.3238 65.1276 33.646 66.8906 37.2131 66.8906C37.4957 66.8906 37.7909 66.878 38.0798 66.8529C41.8354 66.5392 44.7556 64.2116 47.1861 61.5829C47.3808 61.3758 47.5754 61.1688 47.7576 60.9555C48.216 60.4473 48.6556 59.9265 49.0827 59.4121C50.4471 57.6907 51.9762 56.1064 53.6484 54.6816C53.9185 54.462 54.1885 54.2549 54.4648 54.0542C56.0863 52.8461 57.9959 52.0826 60.004 51.8395C60.2615 51.8144 60.519 51.7956 60.7764 51.7893C63.4644 51.7077 65.989 52.6739 68.2876 54.0542C68.6204 54.2549 68.9533 54.462 69.2736 54.6816C70.3726 55.4259 71.4312 56.228 72.445 57.0844C74.0102 58.458 75.6452 59.7501 77.3436 60.9555C77.4692 61.0433 77.5948 61.1311 77.7204 61.2064C77.9151 61.3382 78.116 61.4637 78.317 61.5829C80.0374 62.6876 81.9721 63.4167 83.9943 63.7222C84.0634 63.7348 84.1388 63.7474 84.2141 63.7536C87.4861 64.1363 90.532 63.1701 93.3141 61.5829C93.6595 61.3821 94.0112 61.175 94.3504 60.9555C96.5236 59.5125 98.5605 57.8745 100.436 56.0618C100.926 55.6038 101.422 55.1396 101.937 54.6816C102.169 54.4745 102.402 54.2612 102.64 54.0542C106.371 50.7792 110.673 47.7803 115.753 47.7803C115.967 47.7803 116.187 47.7866 116.406 47.7991C120.061 47.9748 123.271 49.744 125.965 51.99C126.748 52.6388 127.496 53.3277 128.207 54.0542C128.238 54.0855 128.263 54.1106 128.295 54.142C128.471 54.3177 128.646 54.4996 128.81 54.6815C130.819 56.7833 132.672 59.0294 134.858 60.9555C135.096 61.175 135.341 61.3821 135.592 61.5828C136.346 62.2079 137.144 62.7782 137.979 63.2893C138.174 63.4086 138.375 63.5215 138.575 63.6282Z" fill="black"/>
</g>
<g opacity="0.1">
<path opacity="0.1" d="M138.575 54.1483V73.3402C138.576 73.8159 138.532 74.2907 138.444 74.7581C138.412 74.9714 138.362 75.1785 138.312 75.3855C138.255 75.5988 138.186 75.8121 138.117 76.0192C138.073 76.1321 138.035 76.245 137.985 76.3517C137.966 76.4082 137.941 76.4583 137.916 76.5148C137.86 76.6528 137.797 76.7846 137.728 76.9163C137.728 76.9226 137.728 76.9289 137.721 76.9289C137.684 77.0042 137.646 77.0795 137.608 77.1485C137.533 77.2865 137.451 77.4245 137.37 77.5563C137.269 77.7194 137.169 77.8699 137.056 78.0206C136.992 78.1146 136.923 78.2047 136.848 78.2903C136.786 78.3719 136.716 78.4535 136.654 78.535C136.585 78.6189 136.512 78.6986 136.434 78.7734C136.387 78.8309 136.337 78.8853 136.283 78.9365C136.183 79.0369 136.082 79.1373 135.975 79.2314C135.939 79.2702 135.899 79.3059 135.856 79.3381C135.787 79.4008 135.712 79.4635 135.636 79.5263C135.599 79.5576 135.555 79.5953 135.511 79.6267C135.479 79.6518 135.448 79.6768 135.41 79.7082H135.404C135.267 79.8163 135.125 79.9168 134.977 80.0094C134.977 80.0102 134.977 80.011 134.976 80.0118C134.976 80.0126 134.976 80.0133 134.975 80.0139C134.975 80.0144 134.974 80.0149 134.973 80.0152C134.972 80.0155 134.971 80.0157 134.971 80.0157C134.964 80.0157 134.964 80.0219 134.958 80.0282C134.87 80.0909 134.776 80.1474 134.682 80.2039C134.631 80.2352 134.581 80.2603 134.531 80.2854C134.52 80.2959 134.507 80.3044 134.493 80.3105C134.437 80.3419 134.387 80.3733 134.33 80.3983C134.186 80.4736 134.041 80.5489 133.89 80.6179C133.716 80.7002 133.538 80.7735 133.357 80.8375C133.354 80.8413 133.35 80.8445 133.345 80.8466C133.341 80.8488 133.336 80.85 133.332 80.85C133.291 80.8675 133.249 80.8822 133.206 80.894C133.124 80.9253 133.036 80.9567 132.955 80.9818C132.892 81.0006 132.835 81.0132 132.773 81.032C132.641 81.0759 132.503 81.1073 132.364 81.1386C132.327 81.15 132.29 81.1584 132.251 81.1637C132.182 81.1826 132.113 81.1951 132.044 81.2076C132.041 81.2072 132.037 81.2076 132.034 81.2086C132.031 81.2097 132.028 81.2115 132.025 81.2139C132.004 81.2125 131.982 81.2169 131.962 81.2265C131.947 81.2255 131.933 81.2276 131.918 81.2328C131.812 81.2516 131.699 81.2641 131.586 81.2829C131.523 81.2892 131.454 81.2955 131.385 81.3018C131.375 81.3068 131.364 81.309 131.353 81.308C131.322 81.308 131.284 81.3143 131.253 81.3143C131.222 81.3195 131.19 81.3216 131.159 81.3205C131.132 81.326 131.104 81.3281 131.077 81.3268H131.046C131.014 81.3331 130.976 81.3331 130.939 81.3394C130.813 81.3457 130.688 81.3457 130.562 81.3457H31.0334C29.2654 81.3418 27.5479 80.7558 26.1469 79.6783C24.746 78.6008 23.7396 77.092 23.2837 75.3855C23.2335 75.1784 23.1832 74.9714 23.1518 74.7581C23.0632 74.2906 23.019 73.8159 23.0199 73.3402V62.1664C23.2397 61.9782 23.4532 61.7837 23.6668 61.5829C23.8866 61.3759 24.1001 61.1688 24.3136 60.9555C26.1843 59.0105 27.888 56.9118 29.4069 54.6817C29.4571 54.6126 29.5074 54.5499 29.5513 54.4809C29.6518 54.3366 29.7523 54.1985 29.859 54.0543C31.3822 51.8273 33.0856 49.729 34.9523 47.7804C35.1658 47.567 35.3793 47.36 35.5991 47.153C37.9354 44.9571 40.5982 43.3196 43.7383 42.9306C48.0653 42.3911 52.0909 44.3924 55.6518 47.153C55.9156 47.36 56.173 47.567 56.4305 47.7804C57.6489 48.7716 58.8044 49.8507 59.8972 50.9236C60.1861 51.2122 60.4813 51.5008 60.7764 51.7894C61.5363 52.5485 62.3151 53.3077 63.1001 54.0543C63.3262 54.2675 63.546 54.4746 63.7721 54.6817C66.9122 57.5865 70.3097 60.1399 74.3479 60.9555C74.6242 61.012 74.9069 61.0622 75.1895 61.0998C76.7152 61.3028 78.264 61.254 79.774 60.9555C80.0252 60.9116 80.2701 60.8551 80.5214 60.7924C84.302 59.8576 87.8064 57.5049 90.9779 54.6817C91.204 54.4746 91.4363 54.2675 91.6624 54.0543C93.2827 52.5548 94.8214 50.9487 96.2595 49.3676C96.7368 48.8407 97.2267 48.3073 97.7165 47.7804C97.9175 47.5733 98.1122 47.3663 98.3069 47.153C100.409 44.8647 102.708 42.7653 105.177 40.8791C105.473 40.6594 105.768 40.4524 106.063 40.2517C109.385 37.9868 113.015 36.5313 117.003 36.7634C120.294 36.9516 123.302 38.3067 126.009 40.2517C126.285 40.4524 126.561 40.6594 126.838 40.8791C128.898 42.5322 130.777 44.3974 132.446 46.444C132.641 46.6761 132.835 46.9146 133.03 47.153C133.131 47.2722 133.225 47.3977 133.325 47.5168L133.532 47.7804C135.197 49.857 136.798 52.0152 138.5 54.0543L138.575 54.1483Z" fill="black"/>
</g>
<g opacity="0.1">
<path opacity="0.1" d="M138.575 46.2244V73.3402C138.576 73.816 138.532 74.2907 138.444 74.7581C138.412 74.9714 138.362 75.1785 138.312 75.3855C138.255 75.5988 138.186 75.8122 138.117 76.0192C138.073 76.1321 138.035 76.2451 137.985 76.3517C137.966 76.4082 137.941 76.4584 137.916 76.5148C137.86 76.6528 137.797 76.7846 137.728 76.9164C137.728 76.9227 137.728 76.9289 137.721 76.9289C137.684 77.0042 137.646 77.0795 137.608 77.1485C137.533 77.2865 137.451 77.4246 137.37 77.5563C137.269 77.7194 137.169 77.87 137.056 78.0206C136.992 78.1146 136.923 78.2047 136.848 78.2904C136.786 78.3719 136.716 78.4535 136.654 78.535C136.585 78.619 136.512 78.6986 136.434 78.7734C136.387 78.8309 136.337 78.8854 136.283 78.9366C136.183 79.037 136.082 79.1373 135.975 79.2314C135.939 79.2702 135.899 79.3059 135.856 79.3381C135.787 79.4008 135.712 79.4636 135.636 79.5263C135.599 79.5577 135.555 79.5953 135.511 79.6267C135.479 79.6518 135.448 79.6769 135.41 79.7083H135.404C135.267 79.8163 135.125 79.9168 134.977 80.0094C134.977 80.0102 134.977 80.0111 134.976 80.0118C134.976 80.0126 134.976 80.0133 134.975 80.0139C134.975 80.0145 134.974 80.0149 134.973 80.0152C134.972 80.0155 134.971 80.0157 134.971 80.0157C134.964 80.0157 134.964 80.022 134.958 80.0282C134.87 80.091 134.776 80.1474 134.682 80.2039C134.631 80.2353 134.581 80.2603 134.531 80.2855C134.52 80.2959 134.507 80.3044 134.493 80.3105C134.437 80.3419 134.387 80.3733 134.33 80.3984C134.186 80.4736 134.041 80.5489 133.89 80.6179C133.716 80.7002 133.538 80.7735 133.357 80.8376C133.354 80.8414 133.35 80.8445 133.345 80.8466C133.341 80.8488 133.336 80.85 133.332 80.8501C133.291 80.8675 133.249 80.8822 133.206 80.894C133.124 80.9254 133.036 80.9568 132.955 80.9818C132.892 81.0007 132.835 81.0132 132.773 81.032C132.641 81.0759 132.503 81.1073 132.364 81.1387C132.327 81.15 132.29 81.1584 132.251 81.1637C132.182 81.1826 132.113 81.1951 132.044 81.2077C132.041 81.2072 132.037 81.2076 132.034 81.2087C132.031 81.2098 132.028 81.2116 132.025 81.2139C132.004 81.2126 131.982 81.2169 131.962 81.2265C131.947 81.2255 131.933 81.2276 131.918 81.2328C131.812 81.2516 131.699 81.2641 131.586 81.283C131.523 81.2892 131.454 81.2955 131.385 81.3018C131.375 81.3069 131.364 81.309 131.353 81.3081C131.322 81.3081 131.284 81.3143 131.253 81.3143C131.222 81.3195 131.19 81.3216 131.159 81.3206C131.155 81.324 131.151 81.3262 131.146 81.3268H131.046C130.889 81.3394 130.725 81.3457 130.562 81.3457H31.0334C29.2654 81.3418 27.5479 80.7558 26.1469 79.6783C24.746 78.6008 23.7396 77.092 23.2837 75.3855C23.2335 75.1784 23.1832 74.9714 23.1518 74.7581C23.0632 74.2907 23.019 73.8159 23.0199 73.3402V57.141C23.6542 56.3191 24.2906 55.4994 24.9291 54.6817C25.0924 54.4683 25.2557 54.2613 25.419 54.0543C26.2793 52.9501 27.146 51.8584 28.0378 50.7918C28.8919 49.7692 29.79 48.7591 30.7257 47.7804C30.9267 47.5733 31.1276 47.36 31.3349 47.153C33.7174 44.6733 36.4537 42.5592 39.4552 40.8791C39.8634 40.6532 40.2779 40.4462 40.6987 40.2517C42.9269 39.1889 45.3376 38.5608 47.8016 38.4009C51.0337 38.2396 54.256 38.8752 57.1842 40.2517C57.6238 40.4399 58.0571 40.6532 58.4842 40.8791C61.5552 42.4601 64.4378 44.6748 67.1383 47.153C67.3706 47.3538 67.5904 47.567 67.8166 47.7804C69.9581 49.788 71.9866 51.94 73.9209 54.0543C74.0654 54.2111 74.2098 54.3742 74.3542 54.5311C74.3982 54.5813 74.4484 54.6315 74.4924 54.6817C76.3765 56.752 78.3861 58.8475 80.5214 60.7924C80.5779 60.8489 80.6407 60.8991 80.7035 60.9556C80.9358 61.1689 81.1682 61.3759 81.4068 61.583C82.2484 62.3295 83.1151 63.0448 83.9943 63.7223C86.078 65.3618 88.3484 66.7496 90.7581 67.8569C91.2668 68.089 91.7817 68.296 92.303 68.4842C95.1745 69.5798 98.2732 69.9463 101.321 69.5508C102.721 69.3572 104.094 68.9992 105.41 68.4842C105.912 68.296 106.402 68.0827 106.886 67.8569C110.07 66.3511 112.946 64.0737 115.672 61.583C115.898 61.3759 116.124 61.1689 116.35 60.9556C117.901 59.5 119.408 57.988 120.897 56.5262C121.525 55.9113 122.165 55.2902 122.825 54.6817C123.051 54.4746 123.283 54.2676 123.516 54.0543C124.307 53.3453 125.123 52.6489 125.965 51.9901C128.022 50.3084 130.284 48.8939 132.697 47.7804C132.904 47.6862 133.118 47.5984 133.325 47.5168C133.646 47.3851 133.966 47.2659 134.286 47.153C135.669 46.6579 137.111 46.3457 138.575 46.2244Z" fill="black"/>
</g>
<path d="M47.8267 42.1338C48.8672 42.1338 49.7107 41.2912 49.7107 40.2517C49.7107 39.2122 48.8672 38.3695 47.8267 38.3695C46.7861 38.3695 45.9426 39.2122 45.9426 40.2517C45.9426 41.2912 46.7861 42.1338 47.8267 42.1338Z" fill="white"/>
<path d="M76.7156 62.8377C77.7561 62.8377 78.5996 61.995 78.5996 60.9555C78.5996 59.916 77.7561 59.0734 76.7156 59.0734C75.675 59.0734 74.8315 59.916 74.8315 60.9555C74.8315 61.995 75.675 62.8377 76.7156 62.8377Z" fill="white"/>
<path d="M115.653 49.0351C116.693 49.0351 117.537 48.1924 117.537 47.1529C117.537 46.1134 116.693 45.2708 115.653 45.2708C114.612 45.2708 113.769 46.1134 113.769 47.1529C113.769 48.1924 114.612 49.0351 115.653 49.0351Z" fill="white"/>
<path d="M201.352 63.2119H156.927C156.716 63.2116 156.507 63.2528 156.313 63.3331C156.118 63.4135 155.941 63.5314 155.792 63.6801C155.643 63.8288 155.524 64.0055 155.444 64.1999C155.363 64.3944 155.321 64.6028 155.321 64.8133C155.321 65.0238 155.363 65.2322 155.444 65.4267C155.524 65.6211 155.643 65.7977 155.792 65.9465C155.941 66.0952 156.118 66.2131 156.313 66.2934C156.507 66.3738 156.716 66.415 156.927 66.4147H201.352C201.777 66.4147 202.185 66.246 202.486 65.9456C202.786 65.6453 202.955 65.238 202.955 64.8133C202.955 64.3886 202.786 63.9813 202.486 63.6809C202.185 63.3806 201.777 63.2119 201.352 63.2119Z" fill="#E6E6E6"/>
<path d="M201.352 87.4613H156.927C156.502 87.4613 156.094 87.63 155.793 87.9303C155.493 88.2307 155.324 88.638 155.324 89.0627C155.324 89.4874 155.493 89.8947 155.793 90.195C156.094 90.4953 156.502 90.6641 156.927 90.6641H201.352C201.777 90.6641 202.185 90.4953 202.486 90.195C202.786 89.8947 202.955 89.4874 202.955 89.0627C202.955 88.638 202.786 88.2307 202.486 87.9303C202.185 87.63 201.777 87.4613 201.352 87.4613Z" fill="#E6E6E6"/>
<path d="M201.352 111.711H156.927C156.502 111.711 156.094 111.879 155.793 112.18C155.493 112.48 155.324 112.887 155.324 113.312C155.324 113.737 155.493 114.144 155.793 114.444C156.094 114.745 156.502 114.913 156.927 114.913H201.352C201.777 114.913 202.185 114.745 202.486 114.444C202.786 114.144 202.955 113.737 202.955 113.312C202.955 112.887 202.786 112.48 202.486 112.18C202.185 111.879 201.777 111.711 201.352 111.711Z" fill="#E6E6E6"/>
<path d="M228.271 68.9322C230.482 68.9322 232.274 67.1417 232.274 64.9331C232.274 62.7244 230.482 60.934 228.271 60.934C226.06 60.934 224.268 62.7244 224.268 64.9331C224.268 67.1417 226.06 68.9322 228.271 68.9322Z" fill="#F2F2F2"/>
<path d="M227.725 67.0144C227.656 67.0144 227.588 66.9983 227.526 66.9674C227.464 66.9365 227.41 66.8916 227.369 66.8364L226.277 65.3817C226.241 65.3349 226.216 65.2817 226.201 65.2251C226.187 65.1685 226.183 65.1096 226.192 65.0517C226.2 64.9938 226.219 64.9381 226.249 64.8878C226.279 64.8375 226.318 64.7935 226.365 64.7584C226.412 64.7234 226.465 64.6979 226.522 64.6834C226.579 64.6689 226.638 64.6657 226.696 64.674C226.754 64.6823 226.809 64.7019 226.86 64.7318C226.91 64.7616 226.954 64.8011 226.989 64.8479L227.704 65.7995L229.539 63.0497C229.604 62.9515 229.706 62.8833 229.822 62.8602C229.938 62.8371 230.058 62.8608 230.156 62.9263C230.254 62.9917 230.323 63.0935 230.346 63.2092C230.369 63.3249 230.345 63.445 230.28 63.5432L228.095 66.8162C228.056 66.8754 228.003 66.9243 227.94 66.9588C227.878 66.9932 227.808 67.0122 227.737 67.0142L227.725 67.0144Z" fill="white"/>
<path d="M228.271 93.1816C230.482 93.1816 232.274 91.3911 232.274 89.1825C232.274 86.9738 230.482 85.1833 228.271 85.1833C226.06 85.1833 224.268 86.9738 224.268 89.1825C224.268 91.3911 226.06 93.1816 228.271 93.1816Z" fill="#F2F2F2"/>
<path d="M227.725 91.2639C227.656 91.2639 227.588 91.2478 227.526 91.2169C227.464 91.186 227.41 91.1412 227.369 91.0859L226.277 89.6312C226.241 89.5844 226.216 89.5312 226.201 89.4746C226.187 89.418 226.183 89.3591 226.192 89.3012C226.2 89.2433 226.219 89.1876 226.249 89.1373C226.279 89.087 226.318 89.043 226.365 89.008C226.412 88.9729 226.465 88.9474 226.522 88.9329C226.579 88.9184 226.638 88.9152 226.696 88.9235C226.754 88.9318 226.809 88.9514 226.86 88.9813C226.91 89.0111 226.954 89.0506 226.989 89.0974L227.704 90.049L229.539 87.2992C229.571 87.2506 229.613 87.2088 229.661 87.1763C229.71 87.1438 229.764 87.1212 229.822 87.1097C229.879 87.0983 229.938 87.0982 229.996 87.1095C230.053 87.1209 230.107 87.1434 230.156 87.1758C230.205 87.2082 230.247 87.2499 230.279 87.2984C230.312 87.3469 230.334 87.4014 230.346 87.4587C230.357 87.516 230.357 87.575 230.346 87.6323C230.335 87.6896 230.312 87.7441 230.28 87.7927L228.095 91.0658C228.056 91.125 228.003 91.1738 227.94 91.2083C227.878 91.2427 227.808 91.2617 227.737 91.2637L227.725 91.2639Z" fill="white"/>
<path d="M228.271 117.431C230.482 117.431 232.274 115.641 232.274 113.432C232.274 111.223 230.482 109.433 228.271 109.433C226.06 109.433 224.268 111.223 224.268 113.432C224.268 115.641 226.06 117.431 228.271 117.431Z" fill="#F2F2F2"/>
<path d="M201.352 38.9625H156.927C156.502 38.9625 156.094 39.1312 155.793 39.4316C155.493 39.7319 155.324 40.1392 155.324 40.5639C155.324 40.9886 155.493 41.3959 155.793 41.6962C156.094 41.9966 156.502 42.1653 156.927 42.1653H201.352C201.777 42.1653 202.185 41.9966 202.486 41.6962C202.786 41.3959 202.955 40.9886 202.955 40.5639C202.955 40.1392 202.786 39.7319 202.486 39.4316C202.185 39.1312 201.777 38.9625 201.352 38.9625Z" fill="#E6E6E6"/>
<path d="M228.271 44.6828C230.482 44.6828 232.274 42.8924 232.274 40.6837C232.274 38.475 230.482 36.6846 228.271 36.6846C226.06 36.6846 224.268 38.475 224.268 40.6837C224.268 42.8924 226.06 44.6828 228.271 44.6828Z" fill="white"/>
<path d="M227.725 42.765C227.656 42.765 227.588 42.7489 227.526 42.718C227.464 42.6871 227.41 42.6422 227.369 42.587L226.277 41.1323C226.241 41.0855 226.216 41.0323 226.201 40.9757C226.187 40.9191 226.183 40.8602 226.192 40.8023C226.2 40.7444 226.219 40.6887 226.249 40.6384C226.279 40.5881 226.318 40.5441 226.365 40.5091C226.412 40.474 226.465 40.4485 226.522 40.434C226.579 40.4195 226.638 40.4163 226.696 40.4246C226.754 40.4329 226.809 40.4525 226.86 40.4824C226.91 40.5122 226.954 40.5517 226.989 40.5985L227.704 41.5501L229.539 38.8003C229.571 38.7517 229.613 38.7099 229.661 38.6774C229.71 38.6449 229.764 38.6223 229.822 38.6108C229.879 38.5994 229.938 38.5993 229.996 38.6106C230.053 38.622 230.107 38.6445 230.156 38.6769C230.205 38.7093 230.247 38.751 230.279 38.7995C230.312 38.848 230.334 38.9025 230.346 38.9598C230.357 39.0171 230.357 39.076 230.346 39.1334C230.335 39.1907 230.312 39.2452 230.28 39.2938L228.095 42.5669C228.056 42.6261 228.003 42.6749 227.94 42.7094C227.878 42.7438 227.808 42.7628 227.737 42.7648L227.725 42.765Z" fill="white"/>
<path d="M214.989 44.6828C217.2 44.6828 218.992 42.8924 218.992 40.6837C218.992 38.475 217.2 36.6846 214.989 36.6846C212.778 36.6846 210.986 38.475 210.986 40.6837C210.986 42.8924 212.778 44.6828 214.989 44.6828Z" fill="#F2F2F2"/>
<path d="M214.989 68.9322C217.2 68.9322 218.992 67.1417 218.992 64.9331C218.992 62.7244 217.2 60.934 214.989 60.934C212.778 60.934 210.986 62.7244 210.986 64.9331C210.986 67.1417 212.778 68.9322 214.989 68.9322Z" fill="#F2F2F2"/>
<path d="M214.989 93.1816C217.2 93.1816 218.992 91.3911 218.992 89.1825C218.992 86.9738 217.2 85.1833 214.989 85.1833C212.778 85.1833 210.986 86.9738 210.986 89.1825C210.986 91.3911 212.778 93.1816 214.989 93.1816Z" fill="#F2F2F2"/>
<path d="M214.989 117.431C217.2 117.431 218.992 115.641 218.992 113.432C218.992 111.223 217.2 109.433 214.989 109.433C212.778 109.433 210.986 111.223 210.986 113.432C210.986 115.641 212.778 117.431 214.989 117.431Z" fill="#F2F2F2"/>
<path d="M227.725 115.513C227.656 115.513 227.588 115.497 227.526 115.466C227.464 115.435 227.41 115.39 227.369 115.335L226.277 113.88C226.241 113.834 226.216 113.781 226.201 113.724C226.187 113.667 226.184 113.608 226.192 113.551C226.2 113.493 226.22 113.437 226.25 113.387C226.279 113.337 226.319 113.293 226.366 113.258C226.412 113.223 226.466 113.197 226.522 113.183C226.579 113.168 226.638 113.165 226.696 113.173C226.754 113.181 226.809 113.201 226.86 113.231C226.91 113.261 226.954 113.3 226.989 113.347L227.703 114.298L229.539 111.548C229.604 111.45 229.706 111.382 229.822 111.359C229.938 111.336 230.058 111.36 230.156 111.425C230.254 111.49 230.323 111.592 230.346 111.708C230.369 111.824 230.345 111.944 230.28 112.042L228.095 115.315C228.056 115.374 228.003 115.423 227.94 115.458C227.878 115.492 227.808 115.511 227.737 115.513L227.725 115.513Z" fill="white"/>
<path d="M221.953 191.551C221.954 191.574 221.95 191.597 221.941 191.618C221.932 191.639 221.919 191.657 221.901 191.672C221.874 191.693 221.842 191.706 221.808 191.71C221.773 191.717 221.737 191.711 221.708 191.692C221.678 191.674 221.657 191.644 221.648 191.61C221.171 190.005 220.001 188.775 218.893 187.568C217.896 186.485 216.917 185.344 216.415 183.937C216.197 183.378 216.101 182.779 216.132 182.18C216.163 181.581 216.321 180.995 216.595 180.462C216.767 180.143 216.968 179.84 217.194 179.556C217.689 178.926 218.277 178.366 218.807 177.772C218.862 177.709 218.917 177.644 218.969 177.581C219.042 177.502 219.108 177.419 219.17 177.336C219.83 176.52 220.289 175.561 220.51 174.535C220.746 173.284 220.782 172.004 220.617 170.742C220.548 170.071 220.452 169.405 220.33 168.743C220.323 168.712 220.319 168.684 220.312 168.657C219.778 165.819 218.807 163.081 217.432 160.541C217.381 160.448 217.332 160.354 217.28 160.264C217.059 159.863 216.83 159.469 216.588 159.082C216.671 159.023 216.761 158.968 216.851 158.916C217.645 160.2 218.336 161.544 218.917 162.937C219.669 164.724 220.234 166.584 220.603 168.487C220.627 168.591 220.645 168.698 220.662 168.802C220.807 169.601 220.915 170.41 220.98 171.215C221.11 172.479 221.024 173.756 220.724 174.991C220.453 175.971 219.972 176.881 219.315 177.657C219.198 177.806 219.073 177.951 218.942 178.093C218.415 178.667 217.834 179.224 217.36 179.85C217.118 180.164 216.912 180.505 216.747 180.866C216.19 182.111 216.453 183.474 217.069 184.642C218.184 186.769 220.309 188.218 221.441 190.303C221.65 190.687 221.819 191.091 221.946 191.51C221.95 191.523 221.952 191.537 221.953 191.551Z" fill="white"/>
<path d="M220.519 168.838C221.491 168.595 222.344 168.014 222.927 167.199C223.509 166.385 223.783 165.39 223.699 164.392C223.682 164.19 223.367 164.208 223.385 164.41C223.464 165.339 223.209 166.266 222.665 167.023C222.121 167.78 221.324 168.319 220.418 168.54C220.221 168.589 220.323 168.887 220.519 168.838Z" fill="white"/>
<path d="M219.256 177.387C217.489 176.352 216.178 174.69 215.583 172.731C215.524 172.537 215.226 172.639 215.284 172.833C215.907 174.869 217.275 176.597 219.117 177.67C219.292 177.772 219.431 177.489 219.256 177.387Z" fill="white"/>
<path d="M217.471 160.524C217.457 160.531 217.446 160.534 217.432 160.541C216.809 160.825 216.1 160.859 215.453 160.634C215.481 160.533 215.517 160.433 215.56 160.337C216.122 160.53 216.736 160.504 217.28 160.264C217.311 160.254 217.339 160.24 217.37 160.226C217.41 160.213 217.453 160.215 217.49 160.234C217.528 160.252 217.557 160.284 217.571 160.323C217.582 160.363 217.578 160.406 217.56 160.443C217.541 160.48 217.509 160.509 217.471 160.524Z" fill="white"/>
<path d="M200.217 107.538C200.52 107.173 200.739 106.747 200.859 106.29C200.979 105.832 200.997 105.353 200.912 104.888C200.827 104.422 200.64 103.981 200.366 103.595C200.092 103.209 199.736 102.888 199.324 102.654L201.414 91.3408L195.904 93.6715L194.764 104.058C194.416 104.775 194.345 105.595 194.562 106.361C194.78 107.128 195.271 107.788 195.943 108.217C196.615 108.646 197.422 108.814 198.209 108.689C198.997 108.563 199.711 108.154 200.217 107.538Z" fill="#FFB6B6"/>
<path d="M203.58 74.0528L201.829 68.171L189.479 48.921C188.792 48.1195 187.971 47.4432 187.052 46.9224C185.227 45.8801 183.099 45.4943 181.024 45.8293C178.948 46.1643 177.05 47.1998 175.646 48.7633C174.242 50.3268 173.417 52.3238 173.308 54.4214C173.199 56.519 173.814 58.5905 175.048 60.2905C175.303 60.6457 175.584 60.981 175.889 61.2933L191.884 77.7735L192.795 78.714L194.235 82.3517L194.802 98.9391L195.311 99.0601L199.793 100.115L200.42 100.263L201.469 94.845L202.126 92.2551C202.686 90.0463 202.968 87.7767 202.968 85.4984C202.968 84.7964 202.943 84.091 202.888 83.3891L203.58 74.0528Z" fill="#3F3D56"/>
<path d="M186.602 188.435H182.314L180.274 171.91L186.603 171.911L186.602 188.435Z" fill="#FFB6B6"/>
<path d="M186.488 187.035L181.912 185.178L181.777 185.123L179.25 187.035C177.864 187.035 176.531 187.57 175.529 188.528C174.528 189.486 173.935 190.793 173.875 192.177C173.868 192.253 173.868 192.333 173.868 192.412V192.589H187.696V187.035H186.488Z" fill="#2F2E41"/>
<path d="M178.435 179.889L174.739 182.062L164.591 168.853L170.046 165.647L178.435 179.889Z" fill="#FFB6B6"/>
<path d="M180.988 182.066L180.486 181.212L178.669 178.128L177.724 178.685L177.627 178.74L172.74 179.459L172.594 179.48L171.39 182.409C170.78 182.767 170.247 183.241 169.822 183.805C169.396 184.369 169.085 185.011 168.908 185.694C168.73 186.378 168.69 187.09 168.788 187.789C168.886 188.489 169.121 189.162 169.479 189.77L169.569 189.919L181.486 182.914L180.988 182.066Z" fill="#2F2E41"/>
<path d="M192.034 87.4102C194.045 93.4683 193.832 100.044 191.551 107.102L190.955 131.364L189.043 146.668C190.196 149.667 190.788 152.852 190.788 156.064C190.78 164.485 190.213 176.448 187.34 182.068H180.54L179.005 157.042L177.173 144.459L176.947 130.976L176.75 119.216L169.356 130.017L162.172 140.513L169.313 152.547L175.543 171.911L168.967 177.443L161.506 163.313L157.891 159.116L148.02 137.771L148.907 134.799C150.734 128.678 153.387 122.835 156.793 117.43L166.611 94.6666L192.034 87.4102Z" fill="#2F2E41"/>
<path d="M192.905 85.3877L191.784 83.147L191.884 77.7735L192.22 59.6058C192.261 57.2527 191.823 54.9157 190.935 52.7358C190.047 50.556 188.726 48.5784 187.052 46.9224C186.059 45.9336 184.948 45.0707 183.743 44.3532L181.334 42.9147L180.116 39.8234L168.88 40.0965L168.856 43.0945L168.846 44.1492L164.82 50.56L164.824 50.5877L164.907 62.2546L165.073 85.4776L166.184 89.0773L164.505 93.2682L165.398 95.9377L166.111 95.8236L190.126 91.9888C191.218 91.639 192.144 90.9039 192.732 89.921C192.851 89.7289 192.954 89.5277 193.04 89.3193C193.302 88.6929 193.426 88.0173 193.403 87.3388C193.379 86.6603 193.21 85.9948 192.905 85.3877Z" fill="#3F3D56"/>
<path d="M173.468 35.978C179.106 35.978 183.677 31.4116 183.677 25.7787C183.677 20.1458 179.106 15.5795 173.468 15.5795C167.829 15.5795 163.258 20.1458 163.258 25.7787C163.258 31.4116 167.829 35.978 173.468 35.978Z" fill="#FFB6B6"/>
<path d="M179.819 34.2301C180.897 33.4721 181.989 32.0293 182.716 30.9491C183.68 29.5292 184.335 27.9227 184.638 26.2339C184.94 24.545 184.885 22.8115 184.474 21.1456C184.341 20.4791 184.029 19.8614 183.57 19.3592C183.336 19.114 183.03 18.9492 182.696 18.8883C182.363 18.8274 182.018 18.8736 181.712 19.0202C181.866 18.5896 181.931 18.132 181.901 17.6756C181.871 17.2192 181.748 16.7737 181.539 16.3666C181.116 15.554 180.508 14.8511 179.765 14.3138C178.344 13.2513 176.661 12.593 174.895 12.4089C173.129 12.2247 171.346 12.5216 169.736 13.268C169.102 13.572 170.118 11.2777 169.454 11.5068C168.794 11.7724 168.057 11.7697 167.399 11.4991C166.767 11.1921 164.713 13.0964 164.944 12.4335C164.471 12.6562 164.061 12.9949 163.754 13.4181C163.447 13.8414 163.252 14.3353 163.188 14.8541C163.123 15.3728 163.191 15.8994 163.385 16.3848C163.58 16.8703 163.893 17.2987 164.298 17.6303C164.831 18.0673 165.492 18.3141 166.074 18.6833C167.095 19.3797 167.825 20.4253 168.127 21.6226C168.428 22.82 168.281 24.0862 167.712 25.1823C168.313 24.7843 168.975 24.486 169.672 24.2989C170.022 24.2085 170.388 24.2028 170.74 24.2823C171.092 24.3618 171.42 24.5242 171.697 24.7559C171.929 25.0141 172.106 25.3168 172.217 25.6457C172.328 25.9746 172.37 26.3226 172.341 26.6684C172.328 27.3608 172.172 28.0449 172.163 28.7374C172.137 30.7692 171.102 34.6458 172.693 35.7036C173.949 36.5383 178.347 35.2649 179.819 34.2301Z" fill="#2F2E41"/>
<path d="M116.751 50.5867C116.992 50.9938 117.32 51.3431 117.711 51.6099C118.103 51.8767 118.548 52.0546 119.015 52.131C119.483 52.2074 119.961 52.1804 120.417 52.052C120.873 51.9236 121.296 51.6969 121.654 51.3878L131.618 57.1562L131.273 51.1878L121.864 46.6251C121.304 46.0573 120.556 45.7144 119.76 45.6613C118.964 45.6082 118.176 45.8486 117.546 46.3369C116.915 46.8252 116.486 47.5276 116.34 48.3108C116.193 49.0941 116.339 49.9039 116.751 50.5867Z" fill="#FFB6B6"/>
<path d="M181.095 48.7999C180.709 47.593 180.077 46.479 179.238 45.5279C178.4 44.5768 177.374 43.8092 176.225 43.2734C175.075 42.7375 173.827 42.445 172.559 42.4142C171.291 42.3834 170.03 42.615 168.856 43.0944C168.745 43.1394 168.635 43.1878 168.524 43.2362L146.42 53.2882L137.815 52.2682L126.676 48.3815L126.392 48.8207L123.89 52.6831L123.54 53.2225L135.489 60.2801L136.756 60.5429C137.859 60.7709 138.906 61.2141 139.837 61.8473C140.769 62.4804 141.566 63.2909 142.183 64.2324L146.814 65.7539L164.907 62.2545L175.048 60.2904L175.623 60.1798C177.361 59.5116 178.856 58.3334 179.91 56.8002C180.965 55.267 181.53 53.4507 181.531 51.5904C181.532 50.6433 181.385 49.7018 181.095 48.7999Z" fill="#3F3D56"/>
<path d="M232.53 193H112.08C111.97 193 111.865 192.957 111.788 192.879C111.711 192.802 111.667 192.697 111.667 192.588C111.667 192.479 111.711 192.374 111.788 192.297C111.865 192.22 111.97 192.177 112.08 192.177H232.53C232.639 192.177 232.744 192.22 232.821 192.297C232.899 192.374 232.942 192.479 232.942 192.588C232.942 192.697 232.899 192.802 232.821 192.879C232.744 192.957 232.639 193 232.53 193Z" fill="#CCCCCC"/>
<path d="M102.889 96.7981H29.7341C29.3093 96.7987 28.9022 96.9677 28.6021 97.268C28.302 97.5682 28.1334 97.9752 28.1334 98.3995C28.1334 98.8238 28.302 99.2307 28.6021 99.531C28.9022 99.8312 29.3093 100 29.7341 100.001H102.889C103.099 100.001 103.308 99.96 103.503 99.8796C103.698 99.7993 103.875 99.6814 104.024 99.5327C104.173 99.3839 104.291 99.2073 104.372 99.0128C104.452 98.8184 104.494 98.61 104.494 98.3995C104.494 98.189 104.452 97.9806 104.372 97.7861C104.291 97.5917 104.173 97.415 104.024 97.2663C103.875 97.1176 103.698 96.9997 103.503 96.9193C103.308 96.839 103.099 96.7978 102.889 96.7981H102.889Z" fill="#E6E6E6"/>
<path d="M129.807 102.518C132.018 102.518 133.81 100.728 133.81 98.5193C133.81 96.3106 132.018 94.5201 129.807 94.5201C127.596 94.5201 125.804 96.3106 125.804 98.5193C125.804 100.728 127.596 102.518 129.807 102.518Z" fill="white"/>
<path d="M129.261 100.601C129.192 100.601 129.124 100.585 129.062 100.554C129 100.523 128.946 100.478 128.905 100.423L127.813 98.968C127.778 98.9212 127.752 98.868 127.738 98.8115C127.723 98.7549 127.72 98.696 127.728 98.6381C127.737 98.5803 127.756 98.5247 127.786 98.4744C127.816 98.4241 127.855 98.3802 127.902 98.3452C127.949 98.3101 128.002 98.2846 128.059 98.2701C128.115 98.2557 128.174 98.2524 128.232 98.2607C128.29 98.269 128.346 98.2885 128.396 98.3183C128.446 98.3481 128.49 98.3874 128.525 98.4342L129.24 99.3858L131.075 96.636C131.107 96.5874 131.149 96.5456 131.198 96.5131C131.246 96.4806 131.301 96.458 131.358 96.4465C131.415 96.435 131.475 96.435 131.532 96.4463C131.589 96.4577 131.644 96.4802 131.692 96.5126C131.741 96.545 131.783 96.5866 131.815 96.6352C131.848 96.6837 131.871 96.7382 131.882 96.7955C131.894 96.8528 131.894 96.9117 131.882 96.9691C131.871 97.0264 131.848 97.0809 131.816 97.1295L129.632 100.403C129.592 100.462 129.539 100.511 129.477 100.545C129.414 100.58 129.345 100.599 129.274 100.601L129.261 100.601Z" fill="white"/>
<path d="M116.525 102.518C118.736 102.518 120.529 100.728 120.529 98.5193C120.529 96.3106 118.736 94.5201 116.525 94.5201C114.315 94.5201 112.522 96.3106 112.522 98.5193C112.522 100.728 114.315 102.518 116.525 102.518Z" fill="#F2F2F2"/>
<path d="M102.542 116.162H29.3879C28.9632 116.163 28.5561 116.332 28.256 116.632C27.9559 116.932 27.7873 117.339 27.7873 117.764C27.7873 118.188 27.9559 118.595 28.256 118.895C28.5561 119.195 28.9632 119.364 29.3879 119.365H102.542C102.968 119.365 103.375 119.196 103.676 118.896C103.977 118.596 104.145 118.188 104.145 117.764C104.145 117.339 103.977 116.932 103.676 116.631C103.375 116.331 102.968 116.162 102.542 116.162H102.542Z" fill="#E6E6E6"/>
<path d="M129.461 121.883C131.672 121.883 133.464 120.092 133.464 117.883C133.464 115.675 131.672 113.884 129.461 113.884C127.25 113.884 125.458 115.675 125.458 117.883C125.458 120.092 127.25 121.883 129.461 121.883Z" fill="#F2F2F2"/>
<path d="M128.915 119.965C128.846 119.965 128.778 119.949 128.716 119.918C128.654 119.887 128.6 119.842 128.559 119.787L127.467 118.332C127.396 118.238 127.365 118.119 127.382 118.002C127.399 117.885 127.461 117.78 127.556 117.709C127.65 117.638 127.769 117.608 127.886 117.625C128.003 117.641 128.108 117.704 128.179 117.798L128.894 118.75L130.729 116C130.761 115.951 130.803 115.91 130.852 115.877C130.9 115.845 130.955 115.822 131.012 115.811C131.069 115.799 131.128 115.799 131.186 115.81C131.243 115.822 131.298 115.844 131.346 115.877C131.395 115.909 131.437 115.951 131.469 115.999C131.502 116.048 131.525 116.102 131.536 116.159C131.547 116.217 131.548 116.276 131.536 116.333C131.525 116.39 131.502 116.445 131.47 116.494L129.286 119.767C129.246 119.826 129.193 119.875 129.131 119.909C129.068 119.944 128.999 119.963 128.927 119.965L128.915 119.965Z" fill="white"/>
<path d="M116.179 121.883C118.39 121.883 120.182 120.092 120.182 117.883C120.182 115.675 118.39 113.884 116.179 113.884C113.968 113.884 112.176 115.675 112.176 117.883C112.176 120.092 113.968 121.883 116.179 121.883Z" fill="#F2F2F2"/>
</g>
<defs>
<clipPath id="clip0_164_1378">
<rect width="260" height="193" fill="white"/>
</clipPath>
</defs>
</svg>
